<svg width="21" height="23" viewBox="0 0 21 23" fill="none" xmlns="http://www.w3.org/2000/svg">
<rect y="3" width="21" height="20" rx="4" fill="#54D8D8"/>
<path d="M2 7.82353C2 6.26414 3.26414 5 4.82353 5H16.1765C17.7359 5 19 6.26414 19 7.82353V18.1765C19 19.7359 17.7359 21 16.1765 21H4.82353C3.26414 21 2 19.7359 2 18.1765V7.82353Z" fill="white"/>
<rect x="5" width="3" height="7" rx="1.5" fill="#54D8D8"/>
<rect x="13" width="3" height="7" rx="1.5" fill="#54D8D8"/>
<line x1="1" y1="9" x2="19" y2="9" stroke="#54D8D8" stroke-width="2" stroke-linejoin="bevel"/>
<path d="M4.19171 20H8.52071V18.544H7.25971V10.9H4.13971V12.46H5.55671V18.544H4.19171V20ZM10.9665 14.787C10.9665 11.498 15.5425 11.537 15.5425 14.787V16.1C15.5425 19.402 10.9665 19.402 10.9665 16.1V14.787ZM9.26354 16.1C9.26354 21.534 17.2455 21.521 17.2455 16.1V14.787C17.2455 9.366 9.26354 9.353 9.26354 14.787V16.1Z" fill="#54D8D8"/>
</svg>
