<svg width="21" height="23" viewBox="0 0 21 23" fill="none" xmlns="http://www.w3.org/2000/svg">
<rect y="3" width="21" height="20" rx="4" fill="#54D8D8"/>
<path d="M2 7.82353C2 6.26414 3.26414 5 4.82353 5H16.1765C17.7359 5 19 6.26414 19 7.82353V18.1765C19 19.7359 17.7359 21 16.1765 21H4.82353C3.26414 21 2 19.7359 2 18.1765V7.82353Z" fill="white"/>
<rect x="5" width="3" height="7" rx="1.5" fill="#54D8D8"/>
<rect x="13" width="3" height="7" rx="1.5" fill="#54D8D8"/>
<line x1="1" y1="9" x2="19" y2="9" stroke="#54D8D8" stroke-width="2" stroke-linejoin="bevel"/>
<path d="M4.39483 20H8.72383V18.544H7.46283V10.9H4.34283V12.46H5.75983V18.544H4.39483V20ZM11.4266 13.539C11.4396 12.72 12.3626 12.265 13.2596 12.265C14.4296 12.265 15.3266 12.733 15.3266 13.721C15.3266 14.774 14.0656 14.891 13.3766 14.891C11.5826 14.891 9.68461 15.515 9.68461 17.608C9.68461 18.414 9.68461 19.207 9.68461 20H17.0556V18.401H11.4006V17.621C11.4006 16.633 12.6226 16.438 13.3766 16.438C15.2876 16.438 17.0296 15.996 17.0296 13.682C17.0296 11.524 15.0536 10.783 13.2336 10.783C11.5566 10.783 9.73661 11.615 9.72361 13.539H11.4266Z" fill="#54D8D8"/>
</svg>
