<svg width="21" height="23" viewBox="0 0 21 23" fill="none" xmlns="http://www.w3.org/2000/svg">
<rect y="3" width="21" height="20" rx="4" fill="#54D8D8"/>
<path d="M2 7.82353C2 6.26414 3.26414 5 4.82353 5H16.1765C17.7359 5 19 6.26414 19 7.82353V18.1765C19 19.7359 17.7359 21 16.1765 21H4.82353C3.26414 21 2 19.7359 2 18.1765V7.82353Z" fill="white"/>
<rect x="5" width="3" height="7" rx="1.5" fill="#54D8D8"/>
<rect x="13" width="3" height="7" rx="1.5" fill="#54D8D8"/>
<line x1="1" y1="9" x2="19" y2="9" stroke="#54D8D8" stroke-width="2" stroke-linejoin="bevel"/>
<path d="M4.32501 20H8.65401V18.544H7.39301V10.9H4.27301V12.46H5.69001V18.544H4.32501V20ZM13.2511 16.035C14.8891 16.035 15.1881 16.711 15.1881 17.257C15.1881 18.232 14.0311 18.596 13.1601 18.596C12.4191 18.596 11.1581 18.271 11.1581 17.335H9.42913C9.44213 19.402 11.4181 20.13 13.1471 20.13C14.9021 20.13 16.9951 19.467 16.9951 17.244C16.9951 16.477 16.3841 15.619 15.5131 15.333C16.3061 15.086 16.7741 14.254 16.7741 13.539C16.7611 11.602 14.9151 10.77 13.1991 10.77C11.5221 10.77 9.57213 11.485 9.57213 13.448H11.2881C11.2881 12.616 12.3801 12.33 13.1861 12.33C14.6421 12.33 15.0581 13.019 15.0581 13.539C15.0451 14.384 14.0701 14.631 13.1471 14.631H11.8341V16.035H13.2511Z" fill="#54D8D8"/>
</svg>
