<svg width="21" height="23" viewBox="0 0 21 23" fill="none" xmlns="http://www.w3.org/2000/svg">
<rect y="3" width="21" height="20" rx="4" fill="#54D8D8"/>
<path d="M2 7.82353C2 6.26414 3.26414 5 4.82353 5H16.1765C17.7359 5 19 6.26414 19 7.82353V18.1765C19 19.7359 17.7359 21 16.1765 21H4.82353C3.26414 21 2 19.7359 2 18.1765V7.82353Z" fill="white"/>
<rect x="5" width="3" height="7" rx="1.5" fill="#54D8D8"/>
<rect x="13" width="3" height="7" rx="1.5" fill="#54D8D8"/>
<line x1="1" y1="9" x2="19" y2="9" stroke="#54D8D8" stroke-width="2" stroke-linejoin="bevel"/>
<path d="M4.49005 20H8.81905V18.544H7.55805V10.9H4.43805V12.46H5.85505V18.544H4.49005V20ZM16.7052 10.913H10.1142C10.1142 12.564 10.1142 14.085 10.1142 15.723H13.5592C14.4952 15.723 15.5222 16.022 15.5092 17.049C15.5092 18.128 14.4562 18.518 13.6242 18.518C12.7662 18.518 11.6222 18.258 11.6222 17.257H9.91917C9.93217 19.389 11.6482 20.104 13.6502 20.104C15.4832 20.104 17.2122 19.116 17.2122 17.049C17.2252 14.917 15.4962 14.124 13.5592 14.124H11.7912V12.525H16.7052V10.913Z" fill="#54D8D8"/>
</svg>
