<svg width="21" height="23" viewBox="0 0 21 23" fill="none" xmlns="http://www.w3.org/2000/svg">
<rect y="3" width="21" height="20" rx="4" fill="#54D8D8"/>
<path d="M2 7.82353C2 6.26414 3.26414 5 4.82353 5H16.1765C17.7359 5 19 6.26414 19 7.82353V18.1765C19 19.7359 17.7359 21 16.1765 21H4.82353C3.26414 21 2 19.7359 2 18.1765V7.82353Z" fill="white"/>
<rect x="5" width="3" height="7" rx="1.5" fill="#54D8D8"/>
<rect x="13" width="3" height="7" rx="1.5" fill="#54D8D8"/>
<line x1="1" y1="9" x2="19" y2="9" stroke="#54D8D8" stroke-width="2" stroke-linejoin="bevel"/>
<path d="M4.21075 20H8.53975V18.544H7.27875V10.9H4.15875V12.46H5.57575V18.544H4.21075V20ZM11.3788 13.747C11.3788 12.759 12.4188 12.2 13.4458 12.213C14.4208 12.213 15.4348 12.616 15.4348 13.422H17.1508C17.1508 11.511 15.3958 10.731 13.4198 10.731C11.5478 10.731 9.67583 11.68 9.67583 13.708V17.101C9.67583 19.142 11.6128 20.143 13.4718 20.143C15.3048 20.143 17.2418 19.142 17.2418 17.127C17.2418 14.865 15.3178 14.098 13.4848 14.098C12.7698 14.098 11.7818 14.436 11.3788 15.06V13.695V13.747ZM13.4718 18.609C12.3538 18.609 11.3918 18.128 11.3788 17.127C11.3658 16.113 12.3408 15.593 13.4848 15.593C14.6288 15.593 15.5388 16.126 15.5388 17.127C15.5388 18.128 14.5508 18.609 13.4718 18.609Z" fill="#54D8D8"/>
</svg>
