<svg width="21" height="23" viewBox="0 0 21 23" fill="none" xmlns="http://www.w3.org/2000/svg">
<rect y="3" width="21" height="20" rx="4" fill="#54D8D8"/>
<path d="M2 7.82353C2 6.26414 3.26414 5 4.82353 5H16.1765C17.7359 5 19 6.26414 19 7.82353V18.1765C19 19.7359 17.7359 21 16.1765 21H4.82353C3.26414 21 2 19.7359 2 18.1765V7.82353Z" fill="white"/>
<rect x="5" width="3" height="7" rx="1.5" fill="#54D8D8"/>
<rect x="13" width="3" height="7" rx="1.5" fill="#54D8D8"/>
<line x1="1" y1="9" x2="19" y2="9" stroke="#54D8D8" stroke-width="2" stroke-linejoin="bevel"/>
<path d="M4.16632 20H8.49532V18.544H7.23432V10.9H4.11432V12.46H5.53132V18.544H4.16632V20ZM13.3134 15.983C14.4574 15.983 15.4324 16.386 15.4454 17.283C15.4584 17.998 14.7044 18.648 13.3134 18.648C11.9224 18.648 11.1684 17.985 11.1814 17.283C11.1944 16.386 12.2474 15.983 13.3134 15.983ZM9.38744 17.257C9.34844 19.389 11.3244 20.195 13.3004 20.208C15.3284 20.221 17.2784 19.376 17.2394 17.257C17.2264 16.555 16.7974 15.606 15.8614 15.229C16.6804 14.891 17.0314 14.137 17.0314 13.513C17.0314 11.693 15.2634 10.744 13.3004 10.744C11.3244 10.744 9.63444 11.68 9.63444 13.513C9.63444 14.215 9.99844 14.891 10.7784 15.307C9.84244 15.684 9.40044 16.555 9.38744 17.257ZM11.3894 13.461C11.3634 12.837 12.0134 12.174 13.3004 12.174C14.4574 12.174 15.2634 12.694 15.2374 13.461C15.2114 14.254 14.3664 14.735 13.3134 14.735C12.3124 14.735 11.4154 14.254 11.3894 13.461Z" fill="#54D8D8"/>
</svg>
