<svg width="21" height="23" viewBox="0 0 21 23" fill="none" xmlns="http://www.w3.org/2000/svg">
<rect y="3" width="21" height="20" rx="4" fill="#54D8D8"/>
<path d="M2 7.82353C2 6.26414 3.26414 5 4.82353 5H16.1765C17.7359 5 19 6.26414 19 7.82353V18.1765C19 19.7359 17.7359 21 16.1765 21H4.82353C3.26414 21 2 19.7359 2 18.1765V7.82353Z" fill="white"/>
<rect x="5" width="3" height="7" rx="1.5" fill="#54D8D8"/>
<rect x="13" width="3" height="7" rx="1.5" fill="#54D8D8"/>
<line x1="1" y1="9" x2="19" y2="9" stroke="#54D8D8" stroke-width="2" stroke-linejoin="bevel"/>
<path d="M4.19171 20H8.52071V18.544H7.25971V10.9H4.13971V12.46H5.55671V18.544H4.19171V20ZM15.3928 17.127C15.3928 18.115 14.3528 18.674 13.3258 18.661C12.3508 18.661 11.2848 18.258 11.2848 17.452H9.56883C9.56883 19.363 11.3758 20.143 13.3518 20.143C15.2238 20.143 17.0958 19.194 17.0958 17.166V13.773C17.0958 11.732 15.1588 10.731 13.2998 10.731C11.4668 10.731 9.52983 11.732 9.52983 13.747C9.52983 16.009 11.4538 16.776 13.2868 16.776C14.0018 16.776 14.9898 16.438 15.3928 15.814V17.179V17.127ZM13.2998 12.265C14.4178 12.265 15.3798 12.746 15.3928 13.747C15.4058 14.761 14.4308 15.281 13.2868 15.281C12.1428 15.281 11.2328 14.748 11.2328 13.747C11.2328 12.746 12.2208 12.265 13.2998 12.265Z" fill="#54D8D8"/>
</svg>
