<svg width="21" height="23" viewBox="0 0 21 23" fill="none" xmlns="http://www.w3.org/2000/svg">
<rect y="3" width="21" height="20" rx="4" fill="#54D8D8"/>
<path d="M2 7.82353C2 6.26414 3.26414 5 4.82353 5H16.1765C17.7359 5 19 6.26414 19 7.82353V18.1765C19 19.7359 17.7359 21 16.1765 21H4.82353C3.26414 21 2 19.7359 2 18.1765V7.82353Z" fill="white"/>
<rect x="5" width="3" height="7" rx="1.5" fill="#54D8D8"/>
<rect x="13" width="3" height="7" rx="1.5" fill="#54D8D8"/>
<line x1="1" y1="9" x2="19" y2="9" stroke="#54D8D8" stroke-width="2" stroke-linejoin="bevel"/>
<path d="M8.46372 13.539C8.47672 12.72 9.39972 12.265 10.2967 12.265C11.4667 12.265 12.3637 12.733 12.3637 13.721C12.3637 14.774 11.1027 14.891 10.4137 14.891C8.61972 14.891 6.72172 15.515 6.72172 17.608C6.72172 18.414 6.72172 19.207 6.72172 20H14.0927V18.401H8.43772V17.621C8.43772 16.633 9.65972 16.438 10.4137 16.438C12.3247 16.438 14.0667 15.996 14.0667 13.682C14.0667 11.524 12.0907 10.783 10.2707 10.783C8.59372 10.783 6.77372 11.615 6.76072 13.539H8.46372Z" fill="#54D8D8"/>
</svg>
