<svg width="21" height="23" viewBox="0 0 21 23" fill="none" xmlns="http://www.w3.org/2000/svg">
<rect y="3" width="21" height="20" rx="4" fill="#54D8D8"/>
<path d="M2 7.82353C2 6.26414 3.26414 5 4.82353 5H16.1765C17.7359 5 19 6.26414 19 7.82353V18.1765C19 19.7359 17.7359 21 16.1765 21H4.82353C3.26414 21 2 19.7359 2 18.1765V7.82353Z" fill="white"/>
<rect x="5" width="3" height="7" rx="1.5" fill="#54D8D8"/>
<rect x="13" width="3" height="7" rx="1.5" fill="#54D8D8"/>
<line x1="1" y1="9" x2="19" y2="9" stroke="#54D8D8" stroke-width="2" stroke-linejoin="bevel"/>
<path d="M5.16697 13.2569C5.17853 12.5289 5.99897 12.1244 6.79631 12.1244C7.83631 12.1244 8.63364 12.5404 8.63364 13.4187C8.63364 14.3547 7.51275 14.4587 6.90031 14.4587C5.30564 14.4587 3.61853 15.0133 3.61853 16.8738C3.61853 17.5902 3.61853 18.2951 3.61853 19H10.1705V17.5787H5.14386V16.8853C5.14386 16.0071 6.23008 15.8338 6.90031 15.8338C8.59897 15.8338 10.1474 15.4409 10.1474 13.384C10.1474 11.4658 8.39097 10.8071 6.77319 10.8071C5.28253 10.8071 3.66475 11.5467 3.65319 13.2569H5.16697ZM12.6235 14.3662C12.6235 11.4427 16.691 11.4773 16.691 14.3662V15.5333C16.691 18.4684 12.6235 18.4684 12.6235 15.5333V14.3662ZM11.1097 15.5333C11.1097 20.3636 18.2048 20.352 18.2048 15.5333V14.3662C18.2048 9.54756 11.1097 9.536 11.1097 14.3662V15.5333Z" fill="#54D8D8"/>
</svg>
