<svg width="21" height="23" viewBox="0 0 21 23" fill="none" xmlns="http://www.w3.org/2000/svg">
<rect y="3" width="21" height="20" rx="4" fill="#54D8D8"/>
<path d="M2 7.82353C2 6.26414 3.26414 5 4.82353 5H16.1765C17.7359 5 19 6.26414 19 7.82353V18.1765C19 19.7359 17.7359 21 16.1765 21H4.82353C3.26414 21 2 19.7359 2 18.1765V7.82353Z" fill="white"/>
<rect x="5" width="3" height="7" rx="1.5" fill="#54D8D8"/>
<rect x="13" width="3" height="7" rx="1.5" fill="#54D8D8"/>
<line x1="1" y1="9" x2="19" y2="9" stroke="#54D8D8" stroke-width="2" stroke-linejoin="bevel"/>
<path d="M7.05716 13.2569C7.06872 12.5289 7.88916 12.1244 8.6865 12.1244C9.7265 12.1244 10.5238 12.5404 10.5238 13.4187C10.5238 14.3547 9.40294 14.4587 8.7905 14.4587C7.19583 14.4587 5.50872 15.0133 5.50872 16.8738C5.50872 17.5902 5.50872 18.2951 5.50872 19H12.0607V17.5787H7.03405V16.8853C7.03405 16.0071 8.12027 15.8338 8.7905 15.8338C10.4892 15.8338 12.0376 15.4409 12.0376 13.384C12.0376 11.4658 10.2812 10.8071 8.66339 10.8071C7.17272 10.8071 5.55494 11.5467 5.54339 13.2569H7.05716ZM12.7572 19H16.6052V17.7058H15.4843V10.9111H12.711V12.2978H13.9705V17.7058H12.7572V19Z" fill="#54D8D8"/>
</svg>
