<svg width="21" height="23" viewBox="0 0 21 23" fill="none" xmlns="http://www.w3.org/2000/svg">
<rect y="3" width="21" height="20" rx="4" fill="#54D8D8"/>
<path d="M2 7.82353C2 6.26414 3.26414 5 4.82353 5H16.1765C17.7359 5 19 6.26414 19 7.82353V18.1765C19 19.7359 17.7359 21 16.1765 21H4.82353C3.26414 21 2 19.7359 2 18.1765V7.82353Z" fill="white"/>
<rect x="5" width="3" height="7" rx="1.5" fill="#54D8D8"/>
<rect x="13" width="3" height="7" rx="1.5" fill="#54D8D8"/>
<line x1="1" y1="9" x2="19" y2="9" stroke="#54D8D8" stroke-width="2" stroke-linejoin="bevel"/>
<path d="M5.40395 13.2569C5.41551 12.5289 6.23595 12.1244 7.03328 12.1244C8.07328 12.1244 8.87062 12.5404 8.87062 13.4187C8.87062 14.3547 7.74973 14.4587 7.13728 14.4587C5.54262 14.4587 3.85551 15.0133 3.85551 16.8738C3.85551 17.5902 3.85551 18.2951 3.85551 19H10.4075V17.5787H5.38084V16.8853C5.38084 16.0071 6.46706 15.8338 7.13728 15.8338C8.83595 15.8338 10.3844 15.4409 10.3844 13.384C10.3844 11.4658 8.62795 10.8071 7.01017 10.8071C5.51951 10.8071 3.90173 11.5467 3.89017 13.2569H5.40395ZM12.976 13.2569C12.9876 12.5289 13.808 12.1244 14.6053 12.1244C15.6453 12.1244 16.4427 12.5404 16.4427 13.4187C16.4427 14.3547 15.3218 14.4587 14.7093 14.4587C13.1147 14.4587 11.4276 15.0133 11.4276 16.8738C11.4276 17.5902 11.4276 18.2951 11.4276 19H17.9796V17.5787H12.9529V16.8853C12.9529 16.0071 14.0391 15.8338 14.7093 15.8338C16.408 15.8338 17.9564 15.4409 17.9564 13.384C17.9564 11.4658 16.2 10.8071 14.5822 10.8071C13.0916 10.8071 11.4738 11.5467 11.4622 13.2569H12.976Z" fill="#54D8D8"/>
</svg>
