<svg width="21" height="23" viewBox="0 0 21 23" fill="none" xmlns="http://www.w3.org/2000/svg">
<rect y="3" width="21" height="20" rx="4" fill="#54D8D8"/>
<path d="M2 7.82353C2 6.26414 3.26414 5 4.82353 5H16.1765C17.7359 5 19 6.26414 19 7.82353V18.1765C19 19.7359 17.7359 21 16.1765 21H4.82353C3.26414 21 2 19.7359 2 18.1765V7.82353Z" fill="white"/>
<rect x="5" width="3" height="7" rx="1.5" fill="#54D8D8"/>
<rect x="13" width="3" height="7" rx="1.5" fill="#54D8D8"/>
<line x1="1" y1="9" x2="19" y2="9" stroke="#54D8D8" stroke-width="2" stroke-linejoin="bevel"/>
<path d="M5.40959 13.2569C5.42115 12.5289 6.24159 12.1244 7.03893 12.1244C8.07893 12.1244 8.87626 12.5404 8.87626 13.4187C8.87626 14.3547 7.75537 14.4587 7.14293 14.4587C5.54826 14.4587 3.86115 15.0133 3.86115 16.8738C3.86115 17.5902 3.86115 18.2951 3.86115 19H10.4131V17.5787H5.38648V16.8853C5.38648 16.0071 6.4727 15.8338 7.14293 15.8338C8.84159 15.8338 10.39 15.4409 10.39 13.384C10.39 11.4658 8.63359 10.8071 7.01582 10.8071C5.52515 10.8071 3.90737 11.5467 3.89582 13.2569H5.40959ZM14.5301 15.4756C15.9861 15.4756 16.2519 16.0764 16.2519 16.5618C16.2519 17.4284 15.2234 17.752 14.4492 17.752C13.7905 17.752 12.6696 17.4631 12.6696 16.6311H11.1328C11.1443 18.4684 12.9008 19.1156 14.4376 19.1156C15.9976 19.1156 17.8581 18.5262 17.8581 16.5502C17.8581 15.8684 17.315 15.1058 16.5408 14.8516C17.2456 14.632 17.6616 13.8924 17.6616 13.2569C17.6501 11.5351 16.0092 10.7956 14.4839 10.7956C12.9932 10.7956 11.2599 11.4311 11.2599 13.176H12.7852C12.7852 12.4364 13.7559 12.1822 14.4723 12.1822C15.7665 12.1822 16.1363 12.7947 16.1363 13.2569C16.1248 14.008 15.2581 14.2276 14.4376 14.2276H13.2705V15.4756H14.5301Z" fill="#54D8D8"/>
</svg>
