<svg width="21" height="23" viewBox="0 0 21 23" fill="none" xmlns="http://www.w3.org/2000/svg">
<rect y="3" width="21" height="20" rx="4" fill="#54D8D8"/>
<path d="M2 7.82353C2 6.26414 3.26414 5 4.82353 5H16.1765C17.7359 5 19 6.26414 19 7.82353V18.1765C19 19.7359 17.7359 21 16.1765 21H4.82353C3.26414 21 2 19.7359 2 18.1765V7.82353Z" fill="white"/>
<rect x="5" width="3" height="7" rx="1.5" fill="#54D8D8"/>
<rect x="13" width="3" height="7" rx="1.5" fill="#54D8D8"/>
<line x1="1" y1="9" x2="19" y2="9" stroke="#54D8D8" stroke-width="2" stroke-linejoin="bevel"/>
<path d="M5.44909 13.2569C5.46065 12.5289 6.28109 12.1244 7.07842 12.1244C8.11842 12.1244 8.91576 12.5404 8.91576 13.4187C8.91576 14.3547 7.79487 14.4587 7.18242 14.4587C5.58776 14.4587 3.90065 15.0133 3.90065 16.8738C3.90065 17.5902 3.90065 18.2951 3.90065 19H10.4526V17.5787H5.42598V16.8853C5.42598 16.0071 6.5122 15.8338 7.18242 15.8338C8.88109 15.8338 10.4295 15.4409 10.4295 13.384C10.4295 11.4658 8.67309 10.8071 7.05531 10.8071C5.56465 10.8071 3.94687 11.5467 3.93531 13.2569H5.44909ZM14.6823 10.9227L11.0422 15.9147L11.1809 17.4631H15.5027V19H17.0049V17.4631H17.9525V15.984H17.0049V10.9227H14.6823ZM12.764 15.984L15.5027 12.24V15.984H12.764Z" fill="#54D8D8"/>
</svg>
