<svg width="21" height="23" viewBox="0 0 21 23" fill="none" xmlns="http://www.w3.org/2000/svg">
<rect y="3" width="21" height="20" rx="4" fill="#54D8D8"/>
<path d="M2 7.82353C2 6.26414 3.26414 5 4.82353 5H16.1765C17.7359 5 19 6.26414 19 7.82353V18.1765C19 19.7359 17.7359 21 16.1765 21H4.82353C3.26414 21 2 19.7359 2 18.1765V7.82353Z" fill="white"/>
<rect x="5" width="3" height="7" rx="1.5" fill="#54D8D8"/>
<rect x="13" width="3" height="7" rx="1.5" fill="#54D8D8"/>
<line x1="1" y1="9" x2="19" y2="9" stroke="#54D8D8" stroke-width="2" stroke-linejoin="bevel"/>
<path d="M5.61272 13.2569C5.62427 12.5289 6.44472 12.1244 7.24205 12.1244C8.28205 12.1244 9.07939 12.5404 9.07939 13.4187C9.07939 14.3547 7.9585 14.4587 7.34605 14.4587C5.75139 14.4587 4.06427 15.0133 4.06427 16.8738C4.06427 17.5902 4.06427 18.2951 4.06427 19H10.6163V17.5787H5.58961V16.8853C5.58961 16.0071 6.67583 15.8338 7.34605 15.8338C9.04472 15.8338 10.5932 15.4409 10.5932 13.384C10.5932 11.4658 8.83672 10.8071 7.21894 10.8071C5.72827 10.8071 4.1105 11.5467 4.09894 13.2569H5.61272ZM17.5439 10.9227H11.6853C11.6853 12.3902 11.6853 13.7422 11.6853 15.1982H14.7475C15.5795 15.1982 16.4924 15.464 16.4808 16.3769C16.4808 17.336 15.5448 17.6827 14.8053 17.6827C14.0426 17.6827 13.0257 17.4516 13.0257 16.5618H11.5119C11.5235 18.4569 13.0488 19.0924 14.8284 19.0924C16.4577 19.0924 17.9946 18.2142 17.9946 16.3769C18.0061 14.4818 16.4693 13.7769 14.7475 13.7769H13.1759V12.3556H17.5439V10.9227Z" fill="#54D8D8"/>
</svg>
