<svg width="21" height="23" viewBox="0 0 21 23" fill="none" xmlns="http://www.w3.org/2000/svg">
<rect y="3" width="21" height="20" rx="4" fill="#54D8D8"/>
<path d="M2 7.82353C2 6.26414 3.26414 5 4.82353 5H16.1765C17.7359 5 19 6.26414 19 7.82353V18.1765C19 19.7359 17.7359 21 16.1765 21H4.82353C3.26414 21 2 19.7359 2 18.1765V7.82353Z" fill="white"/>
<rect x="5" width="3" height="7" rx="1.5" fill="#54D8D8"/>
<rect x="13" width="3" height="7" rx="1.5" fill="#54D8D8"/>
<line x1="1" y1="9" x2="19" y2="9" stroke="#54D8D8" stroke-width="2" stroke-linejoin="bevel"/>
<path d="M5.36445 13.2569C5.37601 12.5289 6.19646 12.1244 6.99379 12.1244C8.03379 12.1244 8.83112 12.5404 8.83112 13.4187C8.83112 14.3547 7.71023 14.4587 7.09779 14.4587C5.50312 14.4587 3.81601 15.0133 3.81601 16.8738C3.81601 17.5902 3.81601 18.2951 3.81601 19H10.368V17.5787H5.34134V16.8853C5.34134 16.0071 6.42757 15.8338 7.09779 15.8338C8.79646 15.8338 10.3449 15.4409 10.3449 13.384C10.3449 11.4658 8.58846 10.8071 6.97068 10.8071C5.48001 10.8071 3.86223 11.5467 3.85068 13.2569H5.36445ZM12.8094 13.4418C12.8094 12.5636 13.7338 12.0667 14.6467 12.0782C15.5134 12.0782 16.4147 12.4364 16.4147 13.1529H17.9401C17.9401 11.4542 16.3801 10.7609 14.6236 10.7609C12.9596 10.7609 11.2956 11.6044 11.2956 13.4071V16.4231C11.2956 18.2373 13.0174 19.1271 14.6698 19.1271C16.2992 19.1271 18.0209 18.2373 18.0209 16.4462C18.0209 14.4356 16.3107 13.7538 14.6814 13.7538C14.0458 13.7538 13.1676 14.0542 12.8094 14.6089V13.3956V13.4418ZM14.6698 17.7636C13.6761 17.7636 12.8209 17.336 12.8094 16.4462C12.7978 15.5449 13.6645 15.0827 14.6814 15.0827C15.6983 15.0827 16.5072 15.5564 16.5072 16.4462C16.5072 17.336 15.6289 17.7636 14.6698 17.7636Z" fill="#54D8D8"/>
</svg>
