<svg width="21" height="23" viewBox="0 0 21 23" fill="none" xmlns="http://www.w3.org/2000/svg">
<rect y="3" width="21" height="20" rx="4" fill="#54D8D8"/>
<path d="M2 7.82353C2 6.26414 3.26414 5 4.82353 5H16.1765C17.7359 5 19 6.26414 19 7.82353V18.1765C19 19.7359 17.7359 21 16.1765 21H4.82353C3.26414 21 2 19.7359 2 18.1765V7.82353Z" fill="white"/>
<rect x="5" width="3" height="7" rx="1.5" fill="#54D8D8"/>
<rect x="13" width="3" height="7" rx="1.5" fill="#54D8D8"/>
<line x1="1" y1="9" x2="19" y2="9" stroke="#54D8D8" stroke-width="2" stroke-linejoin="bevel"/>
<path d="M6.07539 13.2569C6.08695 12.5289 6.90739 12.1244 7.70473 12.1244C8.74473 12.1244 9.54206 12.5404 9.54206 13.4187C9.54206 14.3547 8.42117 14.4587 7.80873 14.4587C6.21406 14.4587 4.52695 15.0133 4.52695 16.8738C4.52695 17.5902 4.52695 18.2951 4.52695 19H11.0789V17.5787H6.05228V16.8853C6.05228 16.0071 7.1385 15.8338 7.80873 15.8338C9.50739 15.8338 11.0558 15.4409 11.0558 13.384C11.0558 11.4658 9.29939 10.8071 7.68161 10.8071C6.19095 10.8071 4.57317 11.5467 4.56161 13.2569H6.07539ZM13.9334 19L17.5619 11.72L17.481 10.9111H11.5414V12.3671H15.4819L12.177 19H13.9334Z" fill="#54D8D8"/>
</svg>
