<svg width="21" height="23" viewBox="0 0 21 23" fill="none" xmlns="http://www.w3.org/2000/svg">
<rect y="3" width="21" height="20" rx="4" fill="#54D8D8"/>
<path d="M2 7.82353C2 6.26414 3.26414 5 4.82353 5H16.1765C17.7359 5 19 6.26414 19 7.82353V18.1765C19 19.7359 17.7359 21 16.1765 21H4.82353C3.26414 21 2 19.7359 2 18.1765V7.82353Z" fill="white"/>
<rect x="5" width="3" height="7" rx="1.5" fill="#54D8D8"/>
<rect x="13" width="3" height="7" rx="1.5" fill="#54D8D8"/>
<line x1="1" y1="9" x2="19" y2="9" stroke="#54D8D8" stroke-width="2" stroke-linejoin="bevel"/>
<path d="M5.26853 13.2569C5.28009 12.5289 6.10053 12.1244 6.89787 12.1244C7.93787 12.1244 8.7352 12.5404 8.7352 13.4187C8.7352 14.3547 7.61431 14.4587 7.00187 14.4587C5.4072 14.4587 3.72009 15.0133 3.72009 16.8738C3.72009 17.5902 3.72009 18.2951 3.72009 19H10.2721V17.5787H5.24542V16.8853C5.24542 16.0071 6.33165 15.8338 7.00187 15.8338C8.70054 15.8338 10.249 15.4409 10.249 13.384C10.249 11.4658 8.49253 10.8071 6.87476 10.8071C5.38409 10.8071 3.76631 11.5467 3.75476 13.2569H5.26853ZM14.5855 15.4293C15.6024 15.4293 16.469 15.7876 16.4806 16.5849C16.4921 17.2204 15.8219 17.7982 14.5855 17.7982C13.349 17.7982 12.6788 17.2089 12.6904 16.5849C12.7019 15.7876 13.6379 15.4293 14.5855 15.4293ZM11.0957 16.5618C11.061 18.4569 12.8175 19.1733 14.5739 19.1849C16.3766 19.1964 18.1099 18.4453 18.0753 16.5618C18.0637 15.9378 17.6824 15.0942 16.8504 14.7591C17.5784 14.4587 17.8904 13.7884 17.8904 13.2338C17.8904 11.616 16.3188 10.7724 14.5739 10.7724C12.8175 10.7724 11.3153 11.6044 11.3153 13.2338C11.3153 13.8578 11.6388 14.4587 12.3321 14.8284C11.5001 15.1636 11.1073 15.9378 11.0957 16.5618ZM12.8753 13.1876C12.8521 12.6329 13.4299 12.0436 14.5739 12.0436C15.6024 12.0436 16.3188 12.5058 16.2957 13.1876C16.2726 13.8924 15.5215 14.32 14.5855 14.32C13.6957 14.32 12.8984 13.8924 12.8753 13.1876Z" fill="#54D8D8"/>
</svg>
