<svg width="21" height="23" viewBox="0 0 21 23" fill="none" xmlns="http://www.w3.org/2000/svg">
<rect y="3" width="21" height="20" rx="4" fill="#54D8D8"/>
<path d="M2 7.82353C2 6.26414 3.26414 5 4.82353 5H16.1765C17.7359 5 19 6.26414 19 7.82353V18.1765C19 19.7359 17.7359 21 16.1765 21H4.82353C3.26414 21 2 19.7359 2 18.1765V7.82353Z" fill="white"/>
<rect x="5" width="3" height="7" rx="1.5" fill="#54D8D8"/>
<rect x="13" width="3" height="7" rx="1.5" fill="#54D8D8"/>
<line x1="1" y1="9" x2="19" y2="9" stroke="#54D8D8" stroke-width="2" stroke-linejoin="bevel"/>
<path d="M5.2911 13.2569C5.30266 12.5289 6.1231 12.1244 6.92044 12.1244C7.96044 12.1244 8.75777 12.5404 8.75777 13.4187C8.75777 14.3547 7.63688 14.4587 7.02444 14.4587C5.42977 14.4587 3.74266 15.0133 3.74266 16.8738C3.74266 17.5902 3.74266 18.2951 3.74266 19H10.2947V17.5787H5.26799V16.8853C5.26799 16.0071 6.35422 15.8338 7.02444 15.8338C8.7231 15.8338 10.2715 15.4409 10.2715 13.384C10.2715 11.4658 8.5151 10.8071 6.89733 10.8071C5.40666 10.8071 3.78888 11.5467 3.77733 13.2569H5.2911ZM16.4338 16.4462C16.4338 17.3244 15.5094 17.8213 14.5965 17.8098C13.7298 17.8098 12.7823 17.4516 12.7823 16.7351H11.2569C11.2569 18.4338 12.8632 19.1271 14.6196 19.1271C16.2836 19.1271 17.9476 18.2836 17.9476 16.4809V13.4649C17.9476 11.6507 16.2258 10.7609 14.5734 10.7609C12.944 10.7609 11.2223 11.6507 11.2223 13.4418C11.2223 15.4524 12.9325 16.1342 14.5618 16.1342C15.1974 16.1342 16.0756 15.8338 16.4338 15.2791V16.4924V16.4462ZM14.5734 12.1244C15.5672 12.1244 16.4223 12.552 16.4338 13.4418C16.4454 14.3431 15.5787 14.8053 14.5618 14.8053C13.5449 14.8053 12.736 14.3316 12.736 13.4418C12.736 12.552 13.6143 12.1244 14.5734 12.1244Z" fill="#54D8D8"/>
</svg>
