<svg width="21" height="23" viewBox="0 0 21 23" fill="none" xmlns="http://www.w3.org/2000/svg">
<rect y="3" width="21" height="20" rx="4" fill="#54D8D8"/>
<path d="M2 7.82353C2 6.26414 3.26414 5 4.82353 5H16.1765C17.7359 5 19 6.26414 19 7.82353V18.1765C19 19.7359 17.7359 21 16.1765 21H4.82353C3.26414 21 2 19.7359 2 18.1765V7.82353Z" fill="white"/>
<rect x="5" width="3" height="7" rx="1.5" fill="#54D8D8"/>
<rect x="13" width="3" height="7" rx="1.5" fill="#54D8D8"/>
<line x1="1" y1="9" x2="19" y2="9" stroke="#54D8D8" stroke-width="2" stroke-linejoin="bevel"/>
<path d="M10.2121 16.035C11.8501 16.035 12.1491 16.711 12.1491 17.257C12.1491 18.232 10.9921 18.596 10.1211 18.596C9.38007 18.596 8.11907 18.271 8.11907 17.335H6.39007C6.40307 19.402 8.37907 20.13 10.1081 20.13C11.8631 20.13 13.9561 19.467 13.9561 17.244C13.9561 16.477 13.3451 15.619 12.4741 15.333C13.2671 15.086 13.7351 14.254 13.7351 13.539C13.7221 11.602 11.8761 10.77 10.1601 10.77C8.48307 10.77 6.53307 11.485 6.53307 13.448H8.24907C8.24907 12.616 9.34107 12.33 10.1471 12.33C11.6031 12.33 12.0191 13.019 12.0191 13.539C12.0061 14.384 11.0311 14.631 10.1081 14.631H8.79507V16.035H10.2121Z" fill="#54D8D8"/>
</svg>
