<svg width="21" height="23" viewBox="0 0 21 23" fill="none" xmlns="http://www.w3.org/2000/svg">
<rect y="3" width="21" height="20" rx="4" fill="#54D8D8"/>
<path d="M2 7.82353C2 6.26414 3.26414 5 4.82353 5H16.1765C17.7359 5 19 6.26414 19 7.82353V18.1765C19 19.7359 17.7359 21 16.1765 21H4.82353C3.26414 21 2 19.7359 2 18.1765V7.82353Z" fill="white"/>
<rect x="5" width="3" height="7" rx="1.5" fill="#54D8D8"/>
<rect x="13" width="3" height="7" rx="1.5" fill="#54D8D8"/>
<line x1="1" y1="9" x2="19" y2="9" stroke="#54D8D8" stroke-width="2" stroke-linejoin="bevel"/>
<path d="M6.72106 15.4756C8.17706 15.4756 8.44284 16.0764 8.44284 16.5618C8.44284 17.4284 7.41439 17.752 6.64017 17.752C5.9815 17.752 4.86061 17.4631 4.86061 16.6311H3.32373C3.33528 18.4684 5.09173 19.1156 6.62861 19.1156C8.18861 19.1156 10.0491 18.5262 10.0491 16.5502C10.0491 15.8684 9.50595 15.1058 8.73173 14.8516C9.43661 14.632 9.85261 13.8924 9.85261 13.2569C9.84106 11.5351 8.20017 10.7956 6.67484 10.7956C5.18417 10.7956 3.45084 11.4311 3.45084 13.176H4.97617C4.97617 12.4364 5.94684 12.1822 6.66328 12.1822C7.9575 12.1822 8.32728 12.7947 8.32728 13.2569C8.31573 14.008 7.44906 14.2276 6.62861 14.2276H5.4615V15.4756H6.72106ZM12.6178 14.3662C12.6178 11.4427 16.6854 11.4773 16.6854 14.3662V15.5333C16.6854 18.4684 12.6178 18.4684 12.6178 15.5333V14.3662ZM11.104 15.5333C11.104 20.3636 18.1992 20.352 18.1992 15.5333V14.3662C18.1992 9.54756 11.104 9.536 11.104 14.3662V15.5333Z" fill="#54D8D8"/>
</svg>
