<svg width="21" height="23" viewBox="0 0 21 23" fill="none" xmlns="http://www.w3.org/2000/svg">
<rect y="3" width="21" height="20" rx="4" fill="#54D8D8"/>
<path d="M2 7.82353C2 6.26414 3.26414 5 4.82353 5H16.1765C17.7359 5 19 6.26414 19 7.82353V18.1765C19 19.7359 17.7359 21 16.1765 21H4.82353C3.26414 21 2 19.7359 2 18.1765V7.82353Z" fill="white"/>
<rect x="5" width="3" height="7" rx="1.5" fill="#54D8D8"/>
<rect x="13" width="3" height="7" rx="1.5" fill="#54D8D8"/>
<line x1="1" y1="9" x2="19" y2="9" stroke="#54D8D8" stroke-width="2" stroke-linejoin="bevel"/>
<path d="M8.61125 15.4756C10.0672 15.4756 10.333 16.0764 10.333 16.5618C10.333 17.4284 9.30458 17.752 8.53036 17.752C7.87169 17.752 6.75081 17.4631 6.75081 16.6311H5.21392C5.22547 18.4684 6.98192 19.1156 8.51881 19.1156C10.0788 19.1156 11.9393 18.5262 11.9393 16.5502C11.9393 15.8684 11.3961 15.1058 10.6219 14.8516C11.3268 14.632 11.7428 13.8924 11.7428 13.2569C11.7313 11.5351 10.0904 10.7956 8.56503 10.7956C7.07436 10.7956 5.34103 11.4311 5.34103 13.176H6.86636C6.86636 12.4364 7.83703 12.1822 8.55347 12.1822C9.84769 12.1822 10.2175 12.7947 10.2175 13.2569C10.2059 14.008 9.33925 14.2276 8.51881 14.2276H7.35169V15.4756H8.61125ZM12.7516 19H16.5996V17.7058H15.4787V10.9111H12.7053V12.2978H13.9649V17.7058H12.7516V19Z" fill="#54D8D8"/>
</svg>
