<svg width="21" height="23" viewBox="0 0 21 23" fill="none" xmlns="http://www.w3.org/2000/svg">
<rect y="3" width="21" height="20" rx="4" fill="#54D8D8"/>
<path d="M2 7.82353C2 6.26414 3.26414 5 4.82353 5H16.1765C17.7359 5 19 6.26414 19 7.82353V18.1765C19 19.7359 17.7359 21 16.1765 21H4.82353C3.26414 21 2 19.7359 2 18.1765V7.82353Z" fill="white"/>
<rect x="5" width="3" height="7" rx="1.5" fill="#54D8D8"/>
<rect x="13" width="3" height="7" rx="1.5" fill="#54D8D8"/>
<line x1="1" y1="9" x2="19" y2="9" stroke="#54D8D8" stroke-width="2" stroke-linejoin="bevel"/>
<path d="M13.6661 10.913H7.07511C7.07511 12.564 7.07511 14.085 7.07511 15.723H10.5201C11.4561 15.723 12.4831 16.022 12.4701 17.049C12.4701 18.128 11.4171 18.518 10.5851 18.518C9.72711 18.518 8.58311 18.258 8.58311 17.257H6.88011C6.89311 19.389 8.60911 20.104 10.6111 20.104C12.4441 20.104 14.1731 19.116 14.1731 17.049C14.1861 14.917 12.4571 14.124 10.5201 14.124H8.75211V12.525H13.6661V10.913Z" fill="#54D8D8"/>
</svg>
