<svg width="21" height="23" viewBox="0 0 21 23" fill="none" xmlns="http://www.w3.org/2000/svg">
<rect y="3" width="21" height="20" rx="4" fill="#54D8D8"/>
<path d="M2 7.82353C2 6.26414 3.26414 5 4.82353 5H16.1765C17.7359 5 19 6.26414 19 7.82353V18.1765C19 19.7359 17.7359 21 16.1765 21H4.82353C3.26414 21 2 19.7359 2 18.1765V7.82353Z" fill="white"/>
<rect x="5" width="3" height="7" rx="1.5" fill="#54D8D8"/>
<rect x="13" width="3" height="7" rx="1.5" fill="#54D8D8"/>
<line x1="1" y1="9" x2="19" y2="9" stroke="#54D8D8" stroke-width="2" stroke-linejoin="bevel"/>
<path d="M8.27629 13.747C8.27629 12.759 9.31629 12.2 10.3433 12.213C11.3183 12.213 12.3323 12.616 12.3323 13.422H14.0483C14.0483 11.511 12.2933 10.731 10.3173 10.731C8.44529 10.731 6.57329 11.68 6.57329 13.708V17.101C6.57329 19.142 8.51029 20.143 10.3693 20.143C12.2023 20.143 14.1393 19.142 14.1393 17.127C14.1393 14.865 12.2153 14.098 10.3823 14.098C9.66729 14.098 8.67929 14.436 8.27629 15.06V13.695V13.747ZM10.3693 18.609C9.25129 18.609 8.28929 18.128 8.27629 17.127C8.26329 16.113 9.23829 15.593 10.3823 15.593C11.5263 15.593 12.4363 16.126 12.4363 17.127C12.4363 18.128 11.4483 18.609 10.3693 18.609Z" fill="#54D8D8"/>
</svg>
