<svg width="21" height="23" viewBox="0 0 21 23" fill="none" xmlns="http://www.w3.org/2000/svg">
<rect y="3" width="21" height="20" rx="4" fill="#54D8D8"/>
<path d="M2 7.82353C2 6.26414 3.26414 5 4.82353 5H16.1765C17.7359 5 19 6.26414 19 7.82353V18.1765C19 19.7359 17.7359 21 16.1765 21H4.82353C3.26414 21 2 19.7359 2 18.1765V7.82353Z" fill="white"/>
<rect x="5" width="3" height="7" rx="1.5" fill="#54D8D8"/>
<rect x="13" width="3" height="7" rx="1.5" fill="#54D8D8"/>
<line x1="1" y1="9" x2="19" y2="9" stroke="#54D8D8" stroke-width="2" stroke-linejoin="bevel"/>
<path d="M10.2744 15.983C11.4184 15.983 12.3934 16.386 12.4064 17.283C12.4194 17.998 11.6654 18.648 10.2744 18.648C8.88338 18.648 8.12938 17.985 8.14238 17.283C8.15538 16.386 9.20838 15.983 10.2744 15.983ZM6.34838 17.257C6.30938 19.389 8.28538 20.195 10.2614 20.208C12.2894 20.221 14.2394 19.376 14.2004 17.257C14.1874 16.555 13.7584 15.606 12.8224 15.229C13.6414 14.891 13.9924 14.137 13.9924 13.513C13.9924 11.693 12.2244 10.744 10.2614 10.744C8.28538 10.744 6.59538 11.68 6.59538 13.513C6.59538 14.215 6.95938 14.891 7.73938 15.307C6.80338 15.684 6.36138 16.555 6.34838 17.257ZM8.35038 13.461C8.32438 12.837 8.97438 12.174 10.2614 12.174C11.4184 12.174 12.2244 12.694 12.1984 13.461C12.1724 14.254 11.3274 14.735 10.2744 14.735C9.27338 14.735 8.37638 14.254 8.35038 13.461Z" fill="#54D8D8"/>
</svg>
