<svg width="21" height="23" viewBox="0 0 21 23" fill="none" xmlns="http://www.w3.org/2000/svg">
<rect y="3" width="21" height="20" rx="4" fill="#54D8D8"/>
<path d="M2 7.82353C2 6.26414 3.26414 5 4.82353 5H16.1765C17.7359 5 19 6.26414 19 7.82353V18.1765C19 19.7359 17.7359 21 16.1765 21H4.82353C3.26414 21 2 19.7359 2 18.1765V7.82353Z" fill="white"/>
<rect x="5" width="3" height="7" rx="1.5" fill="#54D8D8"/>
<rect x="13" width="3" height="7" rx="1.5" fill="#54D8D8"/>
<line x1="1" y1="9" x2="19" y2="9" stroke="#54D8D8" stroke-width="2" stroke-linejoin="bevel"/>
<path d="M12.3538 17.127C12.3538 18.115 11.3138 18.674 10.2868 18.661C9.31177 18.661 8.24577 18.258 8.24577 17.452H6.52977C6.52977 19.363 8.33677 20.143 10.3128 20.143C12.1848 20.143 14.0568 19.194 14.0568 17.166V13.773C14.0568 11.732 12.1198 10.731 10.2608 10.731C8.42777 10.731 6.49077 11.732 6.49077 13.747C6.49077 16.009 8.41477 16.776 10.2478 16.776C10.9628 16.776 11.9508 16.438 12.3538 15.814V17.179V17.127ZM10.2608 12.265C11.3788 12.265 12.3408 12.746 12.3538 13.747C12.3668 14.761 11.3918 15.281 10.2478 15.281C9.10377 15.281 8.19377 14.748 8.19377 13.747C8.19377 12.746 9.18177 12.265 10.2608 12.265Z" fill="#54D8D8"/>
</svg>
