<svg width="26" height="24" viewBox="0 0 26 24" fill="none" xmlns="http://www.w3.org/2000/svg">
<path d="M13.0003 18.9266C11.6304 18.9266 10.2913 18.5204 9.15223 17.7593C8.01321 16.9982 7.12544 15.9165 6.60121 14.6509C6.07698 13.3852 5.93981 11.9926 6.20706 10.649C6.47432 9.30545 7.13398 8.0713 8.10264 7.10264C9.0713 6.13398 10.3055 5.47432 11.649 5.20706C12.9926 4.93981 14.3852 5.07698 15.6509 5.60121C16.9165 6.12545 17.9982 7.01321 18.7593 8.15223C19.5203 9.29126 19.9266 10.6304 19.9266 12.0003C19.9245 13.8366 19.1941 15.5972 17.8956 16.8956C16.5972 18.1941 14.8366 18.9245 13.0003 18.9266ZM13.0003 6.55483C11.9233 6.55483 10.8704 6.8742 9.97495 7.47255C9.07945 8.0709 8.38149 8.92137 7.96934 9.91639C7.55718 10.9114 7.44935 12.0063 7.65946 13.0626C7.86957 14.1189 8.3882 15.0892 9.14976 15.8508C9.91132 16.6123 10.8816 17.131 11.9379 17.3411C12.9942 17.5512 14.0891 17.4434 15.0842 17.0312C16.0792 16.6191 16.9296 15.9211 17.528 15.0256C18.1263 14.1301 18.4457 13.0773 18.4457 12.0003C18.4441 10.5565 17.8699 9.17242 16.849 8.15155C15.8281 7.13068 14.444 6.55645 13.0003 6.55483Z" fill="#FFD600"/>
<path d="M13.0003 6.55483C11.9233 6.55483 10.8704 6.8742 9.97495 7.47255C9.07945 8.0709 8.38149 8.92137 7.96934 9.91639C7.55718 10.9114 7.44935 12.0063 7.65946 13.0626C7.86957 14.1189 8.3882 15.0892 9.14976 15.8508C9.91132 16.6123 10.8816 17.131 11.9379 17.3411C12.9942 17.5512 14.0891 17.4434 15.0842 17.0312C16.0792 16.6191 16.9296 15.9211 17.528 15.0256C18.1263 14.1301 18.4457 13.0773 18.4457 12.0003C18.4441 10.5565 17.8699 9.17242 16.849 8.15155C15.8281 7.13068 14.444 6.55645 13.0003 6.55483Z" fill="#FFD600"/>
<path d="M25.4716 13H22.5284C22.3883 13 22.2539 12.8946 22.1548 12.7071C22.0557 12.5196 22 12.2652 22 12C22 11.7348 22.0557 11.4804 22.1548 11.2929C22.2539 11.1054 22.3883 11 22.5284 11H25.4716C25.6117 11 25.7461 11.1054 25.8452 11.2929C25.9443 11.4804 26 11.7348 26 12C26 12.2652 25.9443 12.5196 25.8452 12.7071C25.7461 12.8946 25.6117 13 25.4716 13Z" fill="#FFD600"/>
<path d="M6.86899 18.7878L4.78787 20.8689C4.68877 20.968 4.51923 20.9886 4.31655 20.926C4.11387 20.8635 3.89464 20.723 3.70711 20.5355C3.51957 20.3479 3.37908 20.1287 3.31655 19.926C3.25401 19.7234 3.27456 19.5538 3.37365 19.4547L5.45477 17.3736C5.55387 17.2745 5.72341 17.254 5.92609 17.3165C6.12877 17.379 6.348 17.5195 6.53553 17.707C6.72307 17.8946 6.86356 18.1138 6.9261 18.3165C6.98863 18.5192 6.96809 18.6887 6.86899 18.7878Z" fill="#FFD600"/>
<path d="M22.869 4.78781L20.7879 6.86893C20.6888 6.96803 20.5192 6.98857 20.3165 6.92604C20.1139 6.8635 19.8946 6.72301 19.7071 6.53548C19.5196 6.34794 19.3791 6.12871 19.3165 5.92603C19.254 5.72335 19.2746 5.55381 19.3737 5.45471L21.4548 3.37359C21.5539 3.2745 21.7234 3.25395 21.9261 3.31649C22.1288 3.37902 22.348 3.51951 22.5355 3.70705C22.7231 3.89459 22.8636 4.11381 22.9261 4.31649C22.9886 4.51917 22.9681 4.68871 22.869 4.78781Z" fill="#FFD600"/>
<path d="M4.78781 3.37369L6.86893 5.45481C6.96803 5.55391 6.98857 5.72344 6.92604 5.92613C6.8635 6.12881 6.72301 6.34803 6.53548 6.53557C6.34794 6.72311 6.12871 6.8636 5.92603 6.92613C5.72335 6.98867 5.55381 6.96812 5.45471 6.86902L3.37359 4.7879C3.2745 4.6888 3.25395 4.51927 3.31649 4.31659C3.37902 4.1139 3.51951 3.89468 3.70705 3.70714C3.89459 3.51961 4.11381 3.37912 4.31649 3.31658C4.51917 3.25405 4.68871 3.27459 4.78781 3.37369Z" fill="#FFD600"/>
<path d="M20.7878 17.3737L22.8689 19.4548C22.968 19.5539 22.9886 19.7234 22.926 19.9261C22.8635 20.1288 22.723 20.348 22.5355 20.5356C22.3479 20.7231 22.1287 20.8636 21.926 20.9261C21.7234 20.9887 21.5538 20.9681 21.4547 20.869L19.3736 18.7879C19.2745 18.6888 19.254 18.5193 19.3165 18.3166C19.379 18.1139 19.5195 17.8947 19.707 17.7071C19.8946 17.5196 20.1138 17.3791 20.3165 17.3166C20.5192 17.254 20.6887 17.2746 20.7878 17.3737Z" fill="#FFD600"/>
<path d="M3.47158 13H0.528427C0.38828 13 0.253872 12.8946 0.154773 12.7071C0.0556737 12.5196 0 12.2652 0 12C0 11.7348 0.0556737 11.4804 0.154773 11.2929C0.253872 11.1054 0.38828 11 0.528427 11H3.47158C3.61172 11 3.74613 11.1054 3.84523 11.2929C3.94433 11.4804 4 11.7348 4 12C4 12.2652 3.94433 12.5196 3.84523 12.7071C3.74613 12.8946 3.61172 13 3.47158 13Z" fill="#FFD600"/>
<path d="M14 0.528424V3.47157C14 3.61172 13.8946 3.74613 13.7071 3.84523C13.5196 3.94433 13.2652 4 13 4C12.7348 4 12.4804 3.94433 12.2929 3.84523C12.1054 3.74613 12 3.61172 12 3.47157V0.528424C12 0.388277 12.1054 0.253872 12.2929 0.154773C12.4804 0.0556739 12.7348 -5.96046e-08 13 -5.96046e-08C13.2652 -5.96046e-08 13.5196 0.0556739 13.7071 0.154773C13.8946 0.253872 14 0.388277 14 0.528424Z" fill="#FFD600"/>
<path d="M14 20.5284V23.4716C14 23.6117 13.8946 23.7461 13.7071 23.8452C13.5196 23.9443 13.2652 24 13 24C12.7348 24 12.4804 23.9443 12.2929 23.8452C12.1054 23.7461 12 23.6117 12 23.4716V20.5284C12 20.3883 12.1054 20.2539 12.2929 20.1548C12.4804 20.0557 12.7348 20 13 20C13.2652 20 13.5196 20.0557 13.7071 20.1548C13.8946 20.2539 14 20.3883 14 20.5284Z" fill="#FFD600"/>
</svg>
