<svg width="30" height="30" viewBox="0 0 30 30" fill="none" xmlns="http://www.w3.org/2000/svg">
<path d="M15.0003 21.9266C13.6304 21.9266 12.2913 21.5204 11.1522 20.7593C10.0132 19.9982 9.12544 18.9165 8.60121 17.6509C8.07698 16.3852 7.93981 14.9926 8.20706 13.649C8.47432 12.3055 9.13398 11.0713 10.1026 10.1026C11.0713 9.13398 12.3055 8.47432 13.649 8.20706C14.9926 7.93981 16.3852 8.07698 17.6509 8.60121C18.9165 9.12545 19.9982 10.0132 20.7593 11.1522C21.5203 12.2913 21.9266 13.6304 21.9266 15.0003C21.9245 16.8366 21.1941 18.5972 19.8956 19.8956C18.5972 21.1941 16.8366 21.9245 15.0003 21.9266ZM15.0003 9.55483C13.9233 9.55483 12.8704 9.8742 11.9749 10.4726C11.0794 11.0709 10.3815 11.9214 9.96934 12.9164C9.55718 13.9114 9.44935 15.0063 9.65946 16.0626C9.86957 17.1189 10.3882 18.0892 11.1498 18.8508C11.9113 19.6123 12.8816 20.131 13.9379 20.3411C14.9942 20.5512 16.0891 20.4434 17.0842 20.0312C18.0792 19.6191 18.9296 18.9211 19.528 18.0256C20.1263 17.1301 20.4457 16.0773 20.4457 15.0003C20.4441 13.5565 19.8699 12.1724 18.849 11.1516C17.8281 10.1307 16.444 9.55645 15.0003 9.55483V9.55483Z" fill="#54D8D8"/>
<path d="M14.9999 5.873C14.898 5.87302 14.7971 5.85296 14.7029 5.81398C14.6088 5.77499 14.5233 5.71784 14.4512 5.64579C14.3792 5.57375 14.322 5.48821 14.283 5.39407C14.244 5.29993 14.224 5.19903 14.224 5.09714V0.775861C14.224 0.57009 14.3057 0.372747 14.4512 0.227245C14.5967 0.081743 14.7941 0 14.9999 0C15.2056 0 15.403 0.081743 15.5485 0.227245C15.694 0.372747 15.7757 0.57009 15.7757 0.775861V5.09714C15.7757 5.19903 15.7557 5.29993 15.7167 5.39407C15.6777 5.48821 15.6206 5.57375 15.5485 5.64579C15.4765 5.71784 15.3909 5.77499 15.2968 5.81398C15.2026 5.85296 15.1018 5.87302 14.9999 5.873Z" fill="#54D8D8"/>
<path d="M7.99772 8.77359C7.89582 8.77371 7.7949 8.75369 7.70076 8.71468C7.60662 8.67567 7.52112 8.61844 7.44917 8.54628L4.39371 5.49082C4.24834 5.34531 4.1667 5.14803 4.16675 4.94234C4.1668 4.73666 4.24853 4.53941 4.39397 4.39397C4.53941 4.24853 4.73666 4.1668 4.94234 4.16675C5.14803 4.1667 5.34531 4.24834 5.49082 4.39371L8.54628 7.44917C8.65476 7.55767 8.72864 7.69591 8.75856 7.84639C8.78849 7.99688 8.77313 8.15286 8.71441 8.29461C8.6557 8.43637 8.55628 8.55753 8.42871 8.64279C8.30114 8.72804 8.15116 8.77356 7.99773 8.77359H7.99772Z" fill="#54D8D8"/>
<path d="M5.09714 15.7757H0.775861C0.57009 15.7757 0.372747 15.694 0.227245 15.5485C0.0817429 15.403 0 15.2056 0 14.9999C0 14.7941 0.0817429 14.5967 0.227245 14.4512C0.372747 14.3057 0.57009 14.224 0.775861 14.224H5.09714C5.30291 14.224 5.50025 14.3057 5.64575 14.4512C5.79126 14.5967 5.873 14.7941 5.873 14.9999C5.873 15.2056 5.79126 15.403 5.64575 15.5485C5.50025 15.694 5.30291 15.7757 5.09714 15.7757V15.7757Z" fill="#54D8D8"/>
<path d="M4.94225 25.8335C4.78882 25.8335 4.63884 25.788 4.51127 25.7027C4.3837 25.6175 4.28427 25.4963 4.22556 25.3546C4.16684 25.2128 4.15148 25.0568 4.18141 24.9063C4.21133 24.7559 4.28521 24.6176 4.39369 24.5091L7.44914 21.4537C7.52118 21.3816 7.6067 21.3245 7.70082 21.2855C7.79495 21.2465 7.89583 21.2264 7.9977 21.2264C8.09958 21.2264 8.20046 21.2465 8.29458 21.2855C8.3887 21.3245 8.47422 21.3816 8.54626 21.4537C8.6183 21.5257 8.67544 21.6112 8.71443 21.7053C8.75341 21.7995 8.77348 21.9003 8.77348 22.0022C8.77348 22.1041 8.75341 22.205 8.71443 22.2991C8.67544 22.3932 8.6183 22.4787 8.54626 22.5508L5.4908 25.6062C5.41885 25.6784 5.33335 25.7356 5.23921 25.7746C5.14507 25.8136 5.04415 25.8337 4.94225 25.8335Z" fill="#54D8D8"/>
<path d="M15 29.9998C14.8981 29.9999 14.7972 29.9798 14.7031 29.9408C14.6089 29.9018 14.5234 29.8447 14.4513 29.7726C14.3793 29.7006 14.3221 29.615 14.2831 29.5209C14.2442 29.4268 14.2241 29.3259 14.2241 29.224V24.9027C14.2241 24.6969 14.3059 24.4996 14.4514 24.3541C14.5969 24.2086 14.7942 24.1268 15 24.1268C15.2058 24.1268 15.4031 24.2086 15.5486 24.3541C15.6941 24.4996 15.7758 24.6969 15.7758 24.9027V29.224C15.7759 29.3259 15.7558 29.4268 15.7168 29.5209C15.6778 29.615 15.6207 29.7006 15.5486 29.7726C15.4766 29.8447 15.391 29.9018 15.2969 29.9408C15.2028 29.9798 15.1019 29.9999 15 29.9998V29.9998Z" fill="#54D8D8"/>
<path d="M25.0578 25.8335C24.9559 25.8337 24.855 25.8136 24.7608 25.7746C24.6667 25.7356 24.5812 25.6784 24.5092 25.6062L21.4538 22.5508C21.3083 22.4053 21.2266 22.208 21.2266 22.0022C21.2266 21.7965 21.3083 21.5991 21.4538 21.4537C21.5993 21.3082 21.7966 21.2264 22.0023 21.2264C22.2081 21.2264 22.4054 21.3082 22.5509 21.4537L25.6063 24.5091C25.7148 24.6176 25.7887 24.7559 25.8186 24.9063C25.8486 25.0568 25.8332 25.2128 25.7745 25.3546C25.7158 25.4963 25.6163 25.6175 25.4888 25.7027C25.3612 25.788 25.2112 25.8335 25.0578 25.8335H25.0578Z" fill="#54D8D8"/>
<path d="M29.2238 15.7757H24.9026C24.6968 15.7757 24.4995 15.694 24.354 15.5485C24.2085 15.403 24.1267 15.2056 24.1267 14.9999C24.1267 14.7941 24.2085 14.5967 24.354 14.4512C24.4995 14.3057 24.6968 14.224 24.9026 14.224H29.2238C29.4296 14.224 29.627 14.3057 29.7725 14.4512C29.918 14.5967 29.9997 14.7941 29.9997 14.9999C29.9997 15.2056 29.918 15.403 29.7725 15.5485C29.627 15.694 29.4296 15.7757 29.2238 15.7757Z" fill="#54D8D8"/>
<path d="M22.0023 8.77374C21.8489 8.77371 21.6989 8.7282 21.5713 8.64294C21.4438 8.55769 21.3443 8.43652 21.2856 8.29477C21.2269 8.15301 21.2115 7.99703 21.2415 7.84655C21.2714 7.69606 21.3453 7.55783 21.4537 7.44932L24.5092 4.39386C24.5812 4.32177 24.6667 4.26457 24.7609 4.22554C24.855 4.18651 24.9559 4.16641 25.0578 4.16638C25.1597 4.16636 25.2607 4.18641 25.3548 4.2254C25.449 4.26439 25.5345 4.32154 25.6066 4.3936C25.6786 4.46566 25.7358 4.55121 25.7748 4.64537C25.8138 4.73952 25.8338 4.84044 25.8338 4.94234C25.8338 5.04425 25.8137 5.14516 25.7746 5.23929C25.7356 5.33343 25.6784 5.41895 25.6063 5.49098L22.5509 8.54643C22.4789 8.61859 22.3934 8.67582 22.2993 8.71483C22.2051 8.75384 22.1042 8.77386 22.0023 8.77374V8.77374Z" fill="#54D8D8"/>
</svg>
