<svg width="24" height="24" viewBox="0 0 24 24" fill="none" xmlns="http://www.w3.org/2000/svg">
<path d="M19.2077 18.8257C18.7455 18.8916 18.2874 18.9246 17.8462 18.9246C12.4169 18.9246 8 14.371 8 8.77386C8 6.07661 9.01569 3.5367 10.86 1.62201C11.1391 1.33239 11.2077 0.89147 11.0308 0.52636C10.8538 0.16125 10.4705 -0.0468409 10.0785 0.00898826C4.33292 0.827394 0 5.95924 0 11.946C0 18.5925 5.24523 24 11.6923 24C14.8302 24 17.7763 22.7356 19.9886 20.439C20.2674 20.1494 20.3363 19.7084 20.1597 19.3433C19.9825 18.9785 19.6003 18.7679 19.2077 18.8257ZM11.6923 22.0967C6.26308 22.0967 1.84615 17.5432 1.84615 11.946C1.84615 7.83872 4.26738 4.2095 7.78061 2.63296C6.71969 4.4731 6.15385 6.5797 6.15385 8.77386C6.15385 14.9817 10.7298 20.1088 16.5868 20.7584C15.1135 21.6317 13.4382 22.0967 11.6923 22.0967Z" fill="#54D8D8"/>
<path d="M13.1782 5.55158L14.8868 6.43248L15.7409 8.19395C15.8191 8.3551 15.9791 8.4566 16.1539 8.4566C16.3286 8.4566 16.4886 8.3551 16.5668 8.19395L17.4209 6.43248L19.1296 5.55158C19.2859 5.47101 19.3846 5.30606 19.3846 5.12589C19.3846 4.94571 19.2859 4.78108 19.1296 4.70019L17.4209 3.81993L16.5668 2.05845C16.4886 1.89699 16.3286 1.79517 16.1539 1.79517C15.9791 1.79517 15.8191 1.89699 15.7409 2.05845L14.8868 3.81993L13.1782 4.70019C13.0219 4.78108 12.9231 4.94571 12.9231 5.12589C12.9231 5.30606 13.0219 5.47101 13.1782 5.55158Z" fill="#54D8D8"/>
<path d="M23.7449 11.3617L22.0363 10.4814L21.1821 8.71995C21.104 8.55849 20.944 8.45667 20.7692 8.45667C20.5945 8.45667 20.4345 8.55849 20.3563 8.71995L19.5021 10.4814L17.7935 11.3617C17.6372 11.4426 17.5385 11.6072 17.5385 11.7874C17.5385 11.9676 17.6372 12.1325 17.7935 12.2131L19.5021 13.094L20.3563 14.8555C20.4345 15.0166 20.5945 15.1181 20.7692 15.1181C20.944 15.1181 21.104 15.0166 21.1821 14.8555L22.0363 13.094L23.7449 12.2131C23.9012 12.1325 24 11.9676 24 11.7874C24 11.6072 23.9012 11.4426 23.7449 11.3617Z" fill="#54D8D8"/>
</svg>
