<svg width="35" height="26" viewBox="0 0 35 26" fill="none" xmlns="http://www.w3.org/2000/svg">
<path d="M20.7214 2.9204C20.7521 3.09842 20.8454 3.25963 20.9844 3.37501C21.1234 3.49038 21.299 3.55233 21.4796 3.5497H21.6123C21.7105 3.53108 21.8041 3.49322 21.8876 3.43829C21.9712 3.38336 22.043 3.31246 22.099 3.22966C22.1551 3.14686 22.1942 3.0538 22.2141 2.95583C22.234 2.85786 22.2343 2.75692 22.2151 2.65882L21.8587 0.630643C21.8419 0.532221 21.8059 0.438087 21.7526 0.353643C21.6993 0.2692 21.6299 0.19611 21.5483 0.13857C21.4667 0.0810295 21.3745 0.0401721 21.2771 0.0183429C21.1797 -0.00348631 21.0789 -0.00585732 20.9806 0.011366C20.8822 0.0285893 20.7882 0.0650676 20.704 0.118707C20.6198 0.172346 20.547 0.24209 20.4898 0.323935C20.4326 0.40578 20.3922 0.498114 20.3708 0.595636C20.3494 0.693159 20.3474 0.793949 20.3651 0.892221L20.7214 2.9204Z" fill="#54D8D8"/>
<path d="M34.4562 9.48256C34.422 9.28453 34.3105 9.10821 34.1463 8.99234C33.9821 8.87647 33.7786 8.83054 33.5805 8.86463L31.5523 9.22098C31.3512 9.23808 31.1652 9.33435 31.0351 9.48863C30.905 9.6429 30.8415 9.84254 30.8586 10.0436C30.8757 10.2447 30.9719 10.4308 31.1262 10.5609C31.2805 10.691 31.4801 10.7545 31.6812 10.7374H31.8139L33.8421 10.381C33.9421 10.3638 34.0376 10.3266 34.123 10.2718C34.2084 10.2169 34.2819 10.1455 34.3392 10.0617C34.3965 9.97792 34.4364 9.88348 34.4565 9.784C34.4765 9.68452 34.4765 9.58201 34.4562 9.48256V9.48256Z" fill="#54D8D8"/>
<path d="M13.6475 5.8508L15.3307 7.03358C15.4119 7.09475 15.5045 7.13897 15.6032 7.16361C15.7018 7.18825 15.8043 7.1928 15.9048 7.177C16.0052 7.1612 16.1014 7.12537 16.1877 7.07163C16.274 7.0179 16.3486 6.94736 16.4071 6.86421C16.4656 6.78107 16.5067 6.68701 16.5281 6.58763C16.5495 6.48826 16.5507 6.38559 16.5316 6.28574C16.5126 6.18589 16.4736 6.0909 16.4171 6.00641C16.3606 5.92192 16.2876 5.84966 16.2026 5.79393L14.5194 4.60735C14.3545 4.49173 14.1504 4.44634 13.9521 4.48118C13.7537 4.51601 13.5773 4.62822 13.4617 4.79311C13.3461 4.958 13.3007 5.16207 13.3355 5.36042C13.3704 5.55878 13.4826 5.73517 13.6475 5.8508V5.8508Z" fill="#54D8D8"/>
<path d="M32.3333 17.1177L30.6463 15.9273C30.4817 15.8194 30.2816 15.7798 30.0883 15.8167C29.895 15.8536 29.7237 15.9643 29.6105 16.1252C29.4972 16.2862 29.451 16.4849 29.4816 16.6793C29.5122 16.8737 29.6172 17.0486 29.7744 17.167L31.4652 18.3574C31.6297 18.4653 31.8298 18.5049 32.0231 18.468C32.2164 18.4311 32.3878 18.3204 32.501 18.1595C32.6142 17.9985 32.6604 17.7998 32.6298 17.6054C32.5992 17.411 32.4943 17.2361 32.3371 17.1177H32.3333Z" fill="#54D8D8"/>
<path d="M27.6249 4.88037C27.7065 4.93777 27.7986 4.9785 27.896 5.00024C27.9933 5.02197 28.094 5.02427 28.1923 5.00702C28.2905 4.98976 28.3844 4.95328 28.4686 4.89967C28.5527 4.84607 28.6254 4.77638 28.6826 4.69461L29.8654 3.01141C29.9733 2.84683 30.0129 2.64675 29.976 2.45345C29.9391 2.26015 29.8284 2.08878 29.6675 1.97557C29.5065 1.86235 29.3078 1.81615 29.1134 1.84674C28.919 1.87733 28.7441 1.98231 28.6257 2.13949L27.4429 3.82269C27.3853 3.90405 27.3444 3.99597 27.3223 4.0932C27.3003 4.19042 27.2977 4.29102 27.3146 4.38926C27.3315 4.4875 27.3676 4.58145 27.4208 4.66572C27.4741 4.74999 27.5434 4.82293 27.6249 4.88037V4.88037Z" fill="#54D8D8"/>
<path d="M27.9888 16.3822C28.7081 15.6489 29.2571 14.7661 29.5968 13.7967C29.9365 12.8273 30.0587 11.795 29.9546 10.7731C29.8505 9.75115 29.5228 8.76467 28.9946 7.88366C28.4664 7.00266 27.7507 6.24873 26.8983 5.67541C26.046 5.1021 25.0779 4.72345 24.0628 4.56634C23.0477 4.40924 22.0104 4.47753 21.0246 4.76638C20.0389 5.05523 19.1288 5.55754 18.359 6.23767C17.5891 6.91779 16.9785 7.75904 16.5704 8.7017C14.8235 7.74879 12.8153 7.38637 10.8455 7.66855C8.87575 7.95073 7.05005 8.86236 5.64096 10.2674C4.30981 11.5902 3.4189 13.2913 3.08962 15.1388C1.94928 15.7352 1.04159 16.6965 0.511406 17.8691C-0.0187754 19.0417 -0.140889 20.3581 0.164553 21.6082C0.469995 22.8584 1.18539 23.9702 2.19656 24.7662C3.20774 25.5622 4.45641 25.9966 5.74331 26H22.3858C23.4855 26.0048 24.5669 25.7175 25.5192 25.1673C26.4715 24.6172 27.2606 23.824 27.8059 22.8689C28.3511 21.9138 28.6329 20.831 28.6224 19.7312C28.6119 18.6315 28.3095 17.5543 27.7462 16.6097C27.8296 16.5339 27.913 16.4619 27.9888 16.3822ZM22.0446 6.07075C23.1913 5.86354 24.3742 6.02716 25.4217 6.53786C26.4691 7.04855 27.3266 7.87975 27.8696 8.91082C28.4126 9.94189 28.6129 11.1192 28.4414 12.2718C28.2699 13.4244 27.7356 14.4924 26.916 15.3208L26.8288 15.4042C26.0648 14.6285 25.1103 14.0674 24.0609 13.7772C23.0115 13.4871 21.9043 13.4782 20.8504 13.7513C20.2787 12.0934 19.2384 10.6369 17.8555 9.55846C18.1915 8.66387 18.7544 7.872 19.4888 7.26056C20.2232 6.64911 21.1039 6.2391 22.0446 6.07075V6.07075ZM22.3971 24.4684H5.75848C4.78317 24.4673 3.83804 24.1301 3.08226 23.5136C2.32647 22.8972 1.80618 22.0391 1.609 21.0839C1.41183 20.1288 1.5498 19.1348 1.9997 18.2695C2.4496 17.4041 3.18394 16.7202 4.07907 16.333C4.19924 16.2811 4.30394 16.1991 4.383 16.0948C4.46205 15.9905 4.51276 15.8675 4.5302 15.7378C4.76955 13.966 5.61831 12.3329 6.93072 11.1189C8.24312 9.9048 9.93728 9.18556 11.7223 9.08465C13.5072 8.98374 15.2717 9.50746 16.7125 10.5659C18.1534 11.6243 19.1808 13.1513 19.6183 14.8848C19.6446 14.9901 19.6931 15.0884 19.7607 15.1733C19.8282 15.2582 19.9132 15.3276 20.0099 15.3768C20.1065 15.4261 20.2126 15.454 20.321 15.4587C20.4294 15.4634 20.5375 15.4448 20.6381 15.4042C21.2814 15.1448 21.9741 15.031 22.6665 15.0707C23.359 15.1104 24.0341 15.3028 24.6435 15.634C25.2529 15.9651 25.7816 16.427 26.1916 16.9864C26.6016 17.5458 26.8829 18.189 27.0152 18.8698C27.1476 19.5507 27.1278 20.2524 26.9572 20.9247C26.7866 21.5969 26.4695 22.2232 26.0285 22.7586C25.5876 23.294 25.0337 23.7252 24.4065 24.0215C23.7794 24.3177 23.0945 24.4716 22.4009 24.4722L22.3971 24.4684Z" fill="#54D8D8"/>
</svg>
