<svg width="36" height="27" viewBox="0 0 36 27" fill="none" xmlns="http://www.w3.org/2000/svg">
<path d="M23.0003 18.9266C21.6304 18.9266 20.2913 18.5204 19.1522 17.7593C18.0132 16.9982 17.1254 15.9165 16.6012 14.6509C16.077 13.3852 15.9398 11.9926 16.2071 10.649C16.4743 9.30545 17.134 8.0713 18.1026 7.10264C19.0713 6.13398 20.3055 5.47432 21.649 5.20706C22.9926 4.93981 24.3852 5.07698 25.6509 5.60121C26.9165 6.12545 27.9982 7.01321 28.7593 8.15223C29.5203 9.29126 29.9266 10.6304 29.9266 12.0003C29.9245 13.8366 29.1941 15.5972 27.8956 16.8956C26.5972 18.1941 24.8366 18.9245 23.0003 18.9266ZM23.0003 6.55483C21.9233 6.55483 20.8704 6.8742 19.9749 7.47255C19.0794 8.0709 18.3815 8.92137 17.9693 9.91639C17.5572 10.9114 17.4493 12.0063 17.6595 13.0626C17.8696 14.1189 18.3882 15.0892 19.1498 15.8508C19.9113 16.6123 20.8816 17.131 21.9379 17.3411C22.9942 17.5512 24.0891 17.4434 25.0842 17.0312C26.0792 16.6191 26.9296 15.9211 27.528 15.0256C28.1263 14.1301 28.4457 13.0773 28.4457 12.0003C28.4441 10.5565 27.8699 9.17242 26.849 8.15155C25.8281 7.13068 24.444 6.55645 23.0003 6.55483Z" fill="#FFD600"/>
<path d="M23.0003 6.55483C21.9233 6.55483 20.8704 6.8742 19.9749 7.47255C19.0794 8.0709 18.3815 8.92137 17.9693 9.91639C17.5572 10.9114 17.4493 12.0063 17.6595 13.0626C17.8696 14.1189 18.3882 15.0892 19.1498 15.8508C19.9113 16.6123 20.8816 17.131 21.9379 17.3411C22.9942 17.5512 24.0891 17.4434 25.0842 17.0312C26.0792 16.6191 26.9296 15.9211 27.528 15.0256C28.1263 14.1301 28.4457 13.0773 28.4457 12.0003C28.4441 10.5565 27.8699 9.17242 26.849 8.15155C25.8281 7.13068 24.444 6.55645 23.0003 6.55483Z" fill="#FFD600"/>
<path d="M35.4716 13H32.5284C32.3883 13 32.2539 12.8946 32.1548 12.7071C32.0557 12.5196 32 12.2652 32 12C32 11.7348 32.0557 11.4804 32.1548 11.2929C32.2539 11.1054 32.3883 11 32.5284 11H35.4716C35.6117 11 35.7461 11.1054 35.8452 11.2929C35.9443 11.4804 36 11.7348 36 12C36 12.2652 35.9443 12.5196 35.8452 12.7071C35.7461 12.8946 35.6117 13 35.4716 13Z" fill="#FFD600"/>
<path d="M16.869 18.7878L14.7879 20.8689C14.6888 20.968 14.5192 20.9886 14.3165 20.926C14.1139 20.8635 13.8946 20.723 13.7071 20.5355C13.5196 20.3479 13.3791 20.1287 13.3165 19.926C13.254 19.7234 13.2746 19.5538 13.3737 19.4547L15.4548 17.3736C15.5539 17.2745 15.7234 17.254 15.9261 17.3165C16.1288 17.379 16.348 17.5195 16.5355 17.707C16.7231 17.8946 16.8636 18.1138 16.9261 18.3165C16.9886 18.5192 16.9681 18.6887 16.869 18.7878Z" fill="#FFD600"/>
<path d="M32.869 4.78781L30.7879 6.86893C30.6888 6.96803 30.5192 6.98857 30.3165 6.92604C30.1139 6.8635 29.8946 6.72301 29.7071 6.53548C29.5196 6.34794 29.3791 6.12871 29.3165 5.92603C29.254 5.72335 29.2746 5.55381 29.3737 5.45471L31.4548 3.37359C31.5539 3.2745 31.7234 3.25395 31.9261 3.31649C32.1288 3.37902 32.348 3.51951 32.5355 3.70705C32.7231 3.89459 32.8636 4.11381 32.9261 4.31649C32.9886 4.51917 32.9681 4.68871 32.869 4.78781Z" fill="#FFD600"/>
<path d="M14.7878 3.37369L16.8689 5.45481C16.968 5.55391 16.9886 5.72344 16.926 5.92613C16.8635 6.12881 16.723 6.34803 16.5355 6.53557C16.3479 6.72311 16.1287 6.8636 15.926 6.92613C15.7234 6.98867 15.5538 6.96812 15.4547 6.86902L13.3736 4.7879C13.2745 4.6888 13.254 4.51927 13.3165 4.31659C13.379 4.1139 13.5195 3.89468 13.707 3.70714C13.8946 3.51961 14.1138 3.37912 14.3165 3.31658C14.5192 3.25405 14.6887 3.27459 14.7878 3.37369Z" fill="#FFD600"/>
<path d="M30.7878 17.3737L32.8689 19.4548C32.968 19.5539 32.9886 19.7234 32.926 19.9261C32.8635 20.1288 32.723 20.348 32.5355 20.5356C32.3479 20.7231 32.1287 20.8636 31.926 20.9261C31.7234 20.9887 31.5538 20.9681 31.4547 20.869L29.3736 18.7879C29.2745 18.6888 29.254 18.5193 29.3165 18.3166C29.379 18.1139 29.5195 17.8947 29.707 17.7071C29.8946 17.5196 30.1138 17.3791 30.3165 17.3166C30.5192 17.254 30.6887 17.2746 30.7878 17.3737Z" fill="#FFD600"/>
<path d="M13.4716 13H10.5284C10.3883 13 10.2539 12.8946 10.1548 12.7071C10.0557 12.5196 10 12.2652 10 12C10 11.7348 10.0557 11.4804 10.1548 11.2929C10.2539 11.1054 10.3883 11 10.5284 11H13.4716C13.6117 11 13.7461 11.1054 13.8452 11.2929C13.9443 11.4804 14 11.7348 14 12C14 12.2652 13.9443 12.5196 13.8452 12.7071C13.7461 12.8946 13.6117 13 13.4716 13Z" fill="#FFD600"/>
<path d="M24 0.528424V3.47157C24 3.61172 23.8946 3.74613 23.7071 3.84523C23.5196 3.94433 23.2652 4 23 4C22.7348 4 22.4804 3.94433 22.2929 3.84523C22.1054 3.74613 22 3.61172 22 3.47157V0.528424C22 0.388277 22.1054 0.253872 22.2929 0.154773C22.4804 0.0556739 22.7348 -5.96046e-08 23 -5.96046e-08C23.2652 -5.96046e-08 23.5196 0.0556739 23.7071 0.154773C23.8946 0.253872 24 0.388277 24 0.528424Z" fill="#FFD600"/>
<path d="M24 20.5284V23.4716C24 23.6117 23.8946 23.7461 23.7071 23.8452C23.5196 23.9443 23.2652 24 23 24C22.7348 24 22.4804 23.9443 22.2929 23.8452C22.1054 23.7461 22 23.6117 22 23.4716V20.5284C22 20.3883 22.1054 20.2539 22.2929 20.1548C22.4804 20.0557 22.7348 20 23 20C23.2652 20 23.5196 20.0557 23.7071 20.1548C23.8946 20.2539 24 20.3883 24 20.5284Z" fill="#FFD600"/>
<path d="M6.31561 25.4572H6.31652H22.9471L22.9513 25.4613L23.2717 25.461C24.0921 25.4603 24.9023 25.2783 25.6442 24.9278C26.386 24.5774 27.0412 24.0672 27.5629 23.4339C28.0845 22.8006 28.4596 22.0598 28.6614 21.2645C28.8632 20.4692 28.8867 19.6392 28.7301 18.8338C28.5735 18.0284 28.2408 17.2676 27.7558 16.6058C27.2707 15.944 26.6454 15.3977 25.9245 15.006C25.2036 14.6142 24.405 14.3866 23.5859 14.3397C22.7667 14.2927 21.9474 14.4274 21.1864 14.7341L21.1857 14.7344L21.1852 14.7324C20.6956 12.7924 19.5458 11.0835 17.9333 9.89898C16.3207 8.71449 14.3461 8.12839 12.3485 8.24132C10.3509 8.35425 8.45496 9.15917 6.98622 10.5178C5.51749 11.8765 4.56762 13.7042 4.29975 15.687L4.29968 15.6875L4.29892 15.6878C3.22402 16.1529 2.3422 16.9741 1.80195 18.0132C1.26169 19.0524 1.096 20.2459 1.33278 21.3929C1.56956 22.5399 2.19433 23.5703 3.10191 24.3106C4.00949 25.0508 5.14442 25.4558 6.31561 25.4572Z" fill="white" stroke="white" stroke-width="1.54483"/>
</svg>
