<svg width="36" height="25" viewBox="0 0 36 25" fill="none" xmlns="http://www.w3.org/2000/svg">
<path d="M34.4088 13.9353C34.0563 13.9842 33.7069 14.0086 33.3705 14.0086C29.23 14.0086 25.8615 10.6379 25.8615 6.49468C25.8615 4.49809 26.6361 2.61797 28.0426 1.20066C28.2555 0.986279 28.3078 0.659894 28.1729 0.389628C28.0379 0.119362 27.7456 -0.0346731 27.4466 0.00665339C23.0649 0.612462 19.7605 4.41121 19.7605 8.84278C19.7605 13.7627 23.7607 17.7655 28.6774 17.7655C31.0704 17.7655 33.3172 16.8296 35.0043 15.1296C35.2169 14.9152 35.2695 14.5888 35.1348 14.3185C34.9997 14.0485 34.7082 13.8926 34.4088 13.9353ZM28.6774 16.3567C24.5369 16.3567 21.1684 12.986 21.1684 8.84278C21.1684 5.80246 23.0149 3.116 25.6942 1.949C24.8851 3.31113 24.4536 4.8705 24.4536 6.49468C24.4536 11.0899 27.9434 14.8851 32.41 15.366C31.2865 16.0125 30.0088 16.3567 28.6774 16.3567Z" fill="white"/>
<path d="M28.6774 16.3567C24.5369 16.3567 21.1684 12.986 21.1684 8.84278C21.1684 5.80246 23.0149 3.116 25.6942 1.949C24.8851 3.31113 24.4536 4.8705 24.4536 6.49468C24.4536 11.0899 27.9434 14.8851 32.41 15.366C31.2865 16.0125 30.0088 16.3567 28.6774 16.3567Z" fill="white"/>
<path d="M6.31561 23.7684H6.31652H22.9472L22.9514 23.7726L23.2717 23.7723C24.0921 23.7716 24.9023 23.5895 25.6442 23.2391C26.386 22.8886 27.0412 22.3785 27.5629 21.7452C28.0845 21.1119 28.4596 20.371 28.6614 19.5758C28.8632 18.7805 28.8867 17.9505 28.7301 17.1451C28.5735 16.3397 28.2408 15.5788 27.7558 14.9171C27.2707 14.2553 26.6454 13.709 25.9245 13.3172C25.2036 12.9255 24.405 12.6979 23.5859 12.6509C22.7667 12.6039 21.9474 12.7386 21.1864 13.0454L21.1857 13.0457L21.1852 13.0437C20.6956 11.1037 19.5458 9.39475 17.9333 8.21026C16.3207 7.02577 14.3461 6.43967 12.3485 6.5526C10.3509 6.66553 8.45496 7.47045 6.98622 8.82912C5.51749 10.1878 4.56762 12.0155 4.29975 13.9982L4.29968 13.9988L4.29892 13.9991C3.22402 14.4641 2.3422 15.2854 1.80195 16.3245C1.26169 17.3637 1.096 18.5572 1.33278 19.7042C1.56956 20.8512 2.19433 21.8816 3.10191 22.6219C4.00949 23.3621 5.14442 23.767 6.31561 23.7684Z" fill="#979797" stroke="#979797" stroke-width="1.54483"/>
</svg>
