<svg width="36" height="25" viewBox="0 0 36 25" fill="none" xmlns="http://www.w3.org/2000/svg">
<path d="M34.4088 13.9353C34.0563 13.9842 33.7069 14.0086 33.3705 14.0086C29.23 14.0086 25.8615 10.6379 25.8615 6.49468C25.8615 4.49809 26.6361 2.61797 28.0426 1.20066C28.2555 0.986279 28.3078 0.659894 28.1729 0.389628C28.0379 0.119362 27.7456 -0.0346731 27.4466 0.00665339C23.0649 0.612462 19.7605 4.41121 19.7605 8.84278C19.7605 13.7627 23.7607 17.7655 28.6774 17.7655C31.0704 17.7655 33.3172 16.8296 35.0043 15.1296C35.2169 14.9152 35.2695 14.5888 35.1348 14.3185C34.9997 14.0485 34.7082 13.8926 34.4088 13.9353ZM28.6774 16.3567C24.5369 16.3567 21.1684 12.986 21.1684 8.84278C21.1684 5.80246 23.0149 3.116 25.6942 1.949C24.8851 3.31113 24.4536 4.8705 24.4536 6.49468C24.4536 11.0899 27.9434 14.8851 32.41 15.366C31.2865 16.0125 30.0088 16.3567 28.6774 16.3567Z" fill="#54D8D8"/>
<path d="M6.31561 23.7686H6.31652H22.9471L22.9513 23.7727L23.2717 23.7724C24.0921 23.7717 24.9023 23.5897 25.6442 23.2392C26.386 22.8888 27.0412 22.3786 27.5629 21.7453C28.0845 21.112 28.4596 20.3712 28.6614 19.5759C28.8632 18.7806 28.8867 17.9506 28.7301 17.1452C28.5735 16.3398 28.2408 15.579 27.7558 14.9172C27.2707 14.2555 26.6454 13.7091 25.9245 13.3174C25.2036 12.9256 24.405 12.6981 23.5859 12.6511C22.7667 12.6041 21.9474 12.7388 21.1864 13.0455L21.1857 13.0458L21.1852 13.0438C20.6956 11.1038 19.5458 9.39487 17.9333 8.21038C16.3207 7.02589 14.3461 6.43979 12.3485 6.55272C10.3509 6.66565 8.45496 7.47057 6.98622 8.82925C5.51749 10.1879 4.56762 12.0156 4.29975 13.9984L4.29968 13.9989L4.29892 13.9992C3.22402 14.4643 2.3422 15.2855 1.80195 16.3246C1.26169 17.3638 1.096 18.5573 1.33278 19.7043C1.56956 20.8513 2.19433 21.8817 3.10191 22.622C4.00949 23.3622 5.14442 23.7672 6.31561 23.7686Z" fill="white" stroke="#54D8D8" stroke-width="1.54483"/>
</svg>
