<svg width="32" height="22" viewBox="0 0 32 22" fill="none" xmlns="http://www.w3.org/2000/svg">
<path d="M30.8782 13.6856C30.8743 13.6856 30.8704 13.6856 30.8665 13.6855C30.6019 13.6809 30.3651 13.5211 30.2631 13.2781C29.4447 11.3305 27.5453 10.072 25.4242 10.072H24.0263C23.7335 10.072 23.475 9.8819 23.389 9.6034C23.2433 9.13164 23.038 8.67754 22.7789 8.25368C22.1328 7.19726 21.1507 6.34616 20.0135 5.8571C19.7258 5.7333 19.4239 5.63107 19.1164 5.55312C19.0993 5.54881 19.0823 5.54377 19.0655 5.53806C18.6146 5.38501 18.1439 5.30739 17.6667 5.30739H16.4838C16.191 5.30739 15.9325 5.11732 15.8465 4.83882C15.7325 4.46937 15.5729 4.11106 15.3725 3.77384C15.2441 3.5579 15.2491 3.28836 15.3855 3.07726C15.4145 3.03234 15.449 2.99088 15.4879 2.95419C15.4921 2.95021 15.4963 2.94637 15.5006 2.94252C16.6647 1.90069 18.168 1.3269 19.7333 1.3269C20.6047 1.3269 21.4492 1.50006 22.2432 1.84151C23.7967 2.50951 25.0064 3.75712 25.6225 5.30739H26.3333C29.4579 5.30739 32 7.83706 32 10.9464C32 11.7664 31.8264 12.558 31.4839 13.2993C31.3749 13.535 31.1381 13.6856 30.8782 13.6856ZM24.5011 8.74507H25.4243C27.5111 8.74507 29.4269 9.71644 30.6513 11.3142C30.6615 11.1925 30.6667 11.0699 30.6667 10.9464C30.6667 8.56867 28.7227 6.63422 26.3333 6.63422H25.1505C24.8577 6.63422 24.5992 6.44415 24.5132 6.16565C24.0826 4.77129 23.0624 3.63917 21.7143 3.05948C21.0883 2.79026 20.4217 2.65373 19.7333 2.65373C18.6701 2.65373 17.6431 2.98909 16.7917 3.60673C16.8505 3.72972 16.905 3.85438 16.9554 3.98056H17.6667C18.2818 3.98056 18.8886 4.07921 19.4709 4.27386C19.8378 4.36819 20.1982 4.49106 20.5425 4.63913C21.9509 5.24476 23.1181 6.25614 23.9179 7.56386C24.1479 7.93995 24.3431 8.33561 24.5011 8.74507Z" fill="white"/>
<path d="M24.5011 8.74507H25.4243C27.5111 8.74507 29.4269 9.71644 30.6513 11.3142C30.6615 11.1925 30.6667 11.0699 30.6667 10.9464C30.6667 8.56867 28.7227 6.63422 26.3333 6.63422H25.1505C24.8577 6.63422 24.5992 6.44415 24.5132 6.16565C24.0826 4.77129 23.0624 3.63917 21.7143 3.05948C21.0883 2.79026 20.4217 2.65373 19.7333 2.65373C18.6701 2.65373 17.6431 2.98909 16.7917 3.60673C16.8505 3.72972 16.905 3.85438 16.9554 3.98056H17.6667C18.2818 3.98056 18.8886 4.07921 19.4709 4.27386C19.8378 4.36819 20.1982 4.49106 20.5425 4.63913C21.9509 5.24476 23.1181 6.25614 23.9179 7.56386C24.1479 7.93995 24.3431 8.33561 24.5011 8.74507Z" fill="white"/>
<path d="M5.37726 15.2496C5.36446 15.2496 5.3516 15.2492 5.33867 15.2485C2.345 15.0781 0 12.6055 0 9.61951C0 9.50487 0.00446666 9.38207 0.0136667 9.24402C0.122 7.60678 0.943066 6.10023 2.26627 5.11075C2.92513 4.61803 3.66493 4.28095 4.46513 4.10892C4.6974 4.05897 4.93293 4.02348 5.16933 4.00271C5.59713 2.92181 6.33047 1.95966 7.2686 1.2589C8.37113 0.435333 9.68453 0 11.0667 0C11.938 0 12.7825 0.173151 13.5765 0.514611C14.7879 1.03559 15.7918 1.90533 16.4796 3.03008C16.4894 3.04613 16.4987 3.06199 16.5081 3.07791L16.5195 3.09748C16.6883 3.38122 16.8341 3.67678 16.9554 3.98055H17.6667C18.2811 3.98055 18.8873 4.079 19.4689 4.27325C19.7462 4.35359 19.9489 4.60841 19.9489 4.91033C19.9489 5.25763 19.6807 5.54263 19.3391 5.57136C19.2663 5.57772 19.1911 5.57222 19.1164 5.55324C18.6305 5.43018 18.1285 5.36775 17.6242 5.36775C14.9583 5.36775 12.6415 7.07014 11.8593 9.60385C11.7735 9.88156 11.5162 10.0714 11.2243 10.0724C10.8581 10.0737 10.4898 10.1136 10.1295 10.191C9.3906 10.3499 8.70693 10.6616 8.09753 11.1174C6.95693 11.9704 6.20653 13.2634 6.03873 14.6648C5.9986 15 5.71253 15.2496 5.37726 15.2496ZM11.0667 1.32683C8.85613 1.32683 6.9352 2.73831 6.28666 4.83914C6.20093 5.11685 5.9436 5.30672 5.65173 5.30771C5.34893 5.30878 5.04447 5.34175 4.74673 5.40583C4.13607 5.53712 3.57107 5.79473 3.06727 6.17148C2.055 6.9285 1.42693 8.08026 1.34407 9.33146C1.33673 9.44172 1.33333 9.5332 1.33333 9.61951C1.33333 11.7038 2.82727 13.461 4.8286 13.8506C5.17013 12.3487 6.04653 10.9915 7.29653 10.0566C8.061 9.4849 8.9194 9.09375 9.84793 8.89413C10.1421 8.83091 10.4407 8.78765 10.7402 8.76477C11.2333 7.47947 12.0973 6.33441 13.2083 5.50448C13.95 4.95053 14.7736 4.54764 15.6473 4.30649C15.5668 4.12432 15.475 3.94632 15.3725 3.77383L15.3405 3.71957C14.8049 2.84386 13.9905 2.13812 13.0477 1.73264C12.4215 1.46336 11.7551 1.32683 11.0667 1.32683Z" fill="white"/>
<path d="M11.0667 1.32683C8.85613 1.32683 6.9352 2.73831 6.28666 4.83914C6.20093 5.11685 5.9436 5.30672 5.65173 5.30771C5.34893 5.30878 5.04447 5.34175 4.74673 5.40583C4.13607 5.53712 3.57107 5.79473 3.06727 6.17148C2.055 6.9285 1.42693 8.08026 1.34407 9.33146C1.33673 9.44172 1.33333 9.5332 1.33333 9.61951C1.33333 11.7038 2.82727 13.461 4.8286 13.8506C5.17013 12.3487 6.04653 10.9915 7.29653 10.0566C8.061 9.4849 8.9194 9.09375 9.84793 8.89413C10.1421 8.83091 10.4407 8.78765 10.7402 8.76477C11.2333 7.47947 12.0973 6.33441 13.2083 5.50448C13.95 4.95053 14.7736 4.54764 15.6473 4.30649C15.5668 4.12432 15.475 3.94632 15.3725 3.77383L15.3405 3.71957C14.8049 2.84386 13.9905 2.13812 13.0477 1.73264C12.4215 1.46336 11.7551 1.32683 11.0667 1.32683Z" fill="white"/>
<path d="M25.4243 21.8323H11.2425C7.61661 21.8323 4.66675 18.8968 4.66675 15.2886C4.66675 15.155 4.67175 15.0166 4.68248 14.8533C4.69008 14.7398 4.70095 14.6237 4.71481 14.5076C4.92548 12.7484 5.86648 11.126 7.29655 10.0565C8.06095 9.48482 8.91941 9.09367 9.84795 8.89405C10.1421 8.83082 10.4407 8.78757 10.7402 8.76468C11.2333 7.47938 12.0973 6.33433 13.2083 5.5044C14.4903 4.54689 16.0173 4.04077 17.6242 4.04077C18.2394 4.04077 18.8521 4.11693 19.4453 4.26726C19.8211 4.36246 20.1902 4.48758 20.5424 4.63904C21.9508 5.24467 23.1181 6.25605 23.9178 7.56377C24.1478 7.93979 24.3431 8.33552 24.501 8.74498H25.4242C28.0845 8.74498 30.4668 10.3234 31.4931 12.7661C31.8295 13.5665 32 14.4152 32 15.2886C32 18.8968 29.0501 21.8323 25.4243 21.8323ZM17.6243 5.36753C14.9583 5.36753 12.6415 7.06992 11.8593 9.60363C11.7736 9.88134 11.5163 10.0712 11.2244 10.0722C10.8583 10.0735 10.4899 10.1134 10.1296 10.1908C9.39068 10.3498 8.70701 10.6614 8.09761 11.1171C6.95701 11.9701 6.20661 13.2631 6.03881 14.6646C6.02768 14.7578 6.01895 14.8507 6.01295 14.9406C6.00421 15.0738 6.00008 15.1845 6.00008 15.2886C6.00008 18.1652 8.35181 20.5055 11.2425 20.5055H25.4243C28.3149 20.5055 30.6667 18.1653 30.6668 15.2887C30.6668 14.5918 30.531 13.9154 30.2632 13.2779C29.4449 11.3302 27.5454 10.0717 25.4243 10.0717H24.0264C23.7336 10.0717 23.4751 9.88167 23.3891 9.60317C23.2434 9.13148 23.0381 8.67731 22.779 8.25352C22.1329 7.1971 21.1507 6.346 20.0136 5.85694C19.7259 5.73314 19.4241 5.63091 19.1165 5.55296C18.6307 5.42996 18.1286 5.36753 17.6243 5.36753Z" fill="white"/>
<path d="M17.6243 5.36753C14.9583 5.36753 12.6415 7.06992 11.8593 9.60363C11.7736 9.88134 11.5163 10.0712 11.2244 10.0722C10.8583 10.0735 10.4899 10.1134 10.1296 10.1908C9.39068 10.3498 8.70701 10.6614 8.09761 11.1171C6.95701 11.9701 6.20661 13.2631 6.03881 14.6646C6.02768 14.7578 6.01895 14.8507 6.01295 14.9406C6.00421 15.0738 6.00008 15.1845 6.00008 15.2886C6.00008 18.1652 8.35181 20.5055 11.2425 20.5055H25.4243C28.3149 20.5055 30.6667 18.1653 30.6668 15.2887C30.6668 14.5918 30.531 13.9154 30.2632 13.2779C29.4449 11.3302 27.5454 10.0717 25.4243 10.0717H24.0264C23.7336 10.0717 23.4751 9.88167 23.3891 9.60317C23.2434 9.13148 23.0381 8.67731 22.779 8.25352C22.1329 7.1971 21.1507 6.346 20.0136 5.85694C19.7259 5.73314 19.4241 5.63091 19.1165 5.55296C18.6307 5.42996 18.1286 5.36753 17.6243 5.36753Z" fill="white"/>
<path d="M30.8782 13.6856C30.8743 13.6856 30.8704 13.6856 30.8665 13.6855C30.6019 13.6809 30.3651 13.5211 30.2631 13.2781C29.4447 11.3305 27.5453 10.072 25.4242 10.072H24.0263C23.7335 10.072 23.475 9.8819 23.389 9.6034C23.2433 9.13164 23.038 8.67754 22.7789 8.25368C22.1328 7.19726 21.1507 6.34616 20.0135 5.8571C19.7258 5.7333 19.4239 5.63107 19.1164 5.55312C19.0993 5.54881 19.0823 5.54376 19.0655 5.53806C18.6146 5.38501 18.1439 5.30739 17.6667 5.30739H16.4838C16.191 5.30739 15.9325 5.11732 15.8465 4.83882C15.7325 4.46937 15.5729 4.11106 15.3725 3.77384C15.2441 3.5579 15.2491 3.28836 15.3855 3.07726C15.4145 3.03234 15.449 2.99088 15.4879 2.95419C15.4921 2.95021 15.4963 2.94637 15.5006 2.94252C16.6647 1.90069 18.168 1.3269 19.7333 1.3269C20.6047 1.3269 21.4492 1.50006 22.2432 1.84151C23.7967 2.50951 25.0064 3.75712 25.6225 5.30739H26.3333C29.4579 5.30739 32 7.83706 32 10.9464C32 11.7664 31.8264 12.558 31.4839 13.2993C31.3749 13.535 31.1381 13.6856 30.8782 13.6856ZM24.5011 8.74507H25.4243C27.5111 8.74507 29.4269 9.71644 30.6513 11.3142C30.6615 11.1925 30.6667 11.0699 30.6667 10.9464C30.6667 8.56867 28.7227 6.63422 26.3333 6.63422H25.1505C24.8577 6.63422 24.5992 6.44415 24.5132 6.16565C24.0826 4.77129 23.0624 3.63917 21.7143 3.05948C21.0883 2.79026 20.4217 2.65373 19.7333 2.65373C18.6701 2.65373 17.6431 2.98909 16.7917 3.60673C16.8505 3.72972 16.905 3.85438 16.9554 3.98056H17.6667C18.2818 3.98056 18.8886 4.07921 19.4709 4.27386C19.8378 4.36819 20.1982 4.49106 20.5425 4.63913C21.9509 5.24476 23.1181 6.25614 23.9179 7.56386C24.1479 7.93995 24.3431 8.33561 24.5011 8.74507Z" fill="#979797"/>
<path d="M5.37726 15.2496C5.36446 15.2496 5.3516 15.2492 5.33867 15.2485C2.345 15.0781 0 12.6055 0 9.61951C0 9.50487 0.00446666 9.38207 0.0136667 9.24402C0.122 7.60678 0.943066 6.10023 2.26627 5.11075C2.92513 4.61803 3.66493 4.28095 4.46513 4.10892C4.6974 4.05897 4.93293 4.02348 5.16933 4.00271C5.59713 2.92181 6.33046 1.95966 7.2686 1.2589C8.37113 0.435333 9.68453 0 11.0667 0C11.938 0 12.7825 0.173151 13.5765 0.514611C14.7879 1.03559 15.7918 1.90533 16.4796 3.03008C16.4894 3.04613 16.4987 3.06199 16.5081 3.07791L16.5195 3.09748C16.6883 3.38122 16.8341 3.67678 16.9554 3.98055H17.6667C18.2811 3.98055 18.8873 4.079 19.4689 4.27325C19.7462 4.35359 19.9489 4.60841 19.9489 4.91033C19.9489 5.25763 19.6807 5.54263 19.3391 5.57136C19.2663 5.57772 19.1911 5.57222 19.1164 5.55324C18.6305 5.43018 18.1285 5.36775 17.6242 5.36775C14.9583 5.36775 12.6415 7.07014 11.8593 9.60385C11.7735 9.88156 11.5162 10.0714 11.2243 10.0724C10.8581 10.0737 10.4898 10.1136 10.1295 10.191C9.3906 10.3499 8.70693 10.6616 8.09753 11.1174C6.95693 11.9704 6.20653 13.2634 6.03873 14.6648C5.9986 15 5.71253 15.2496 5.37726 15.2496ZM11.0667 1.32683C8.85613 1.32683 6.9352 2.73831 6.28667 4.83914C6.20093 5.11685 5.9436 5.30672 5.65173 5.30771C5.34893 5.30878 5.04447 5.34175 4.74673 5.40583C4.13607 5.53712 3.57107 5.79473 3.06727 6.17148C2.055 6.9285 1.42693 8.08026 1.34407 9.33146C1.33673 9.44172 1.33333 9.5332 1.33333 9.61951C1.33333 11.7038 2.82727 13.461 4.8286 13.8506C5.17013 12.3487 6.04653 10.9915 7.29653 10.0566C8.061 9.4849 8.9194 9.09375 9.84793 8.89413C10.1421 8.83091 10.4407 8.78765 10.7402 8.76477C11.2333 7.47947 12.0973 6.33441 13.2083 5.50448C13.95 4.95053 14.7736 4.54764 15.6473 4.30649C15.5668 4.12432 15.475 3.94632 15.3725 3.77383L15.3405 3.71957C14.8049 2.84386 13.9905 2.13812 13.0477 1.73264C12.4215 1.46336 11.7551 1.32683 11.0667 1.32683Z" fill="#979797"/>
<path d="M25.4243 21.8323H11.2425C7.61661 21.8323 4.66675 18.8968 4.66675 15.2886C4.66675 15.155 4.67175 15.0166 4.68248 14.8533C4.69008 14.7398 4.70095 14.6237 4.71481 14.5076C4.92548 12.7484 5.86648 11.126 7.29655 10.0565C8.06095 9.48482 8.91941 9.09367 9.84795 8.89405C10.1421 8.83082 10.4407 8.78757 10.7402 8.76468C11.2333 7.47938 12.0973 6.33433 13.2083 5.5044C14.4903 4.54689 16.0173 4.04077 17.6242 4.04077C18.2394 4.04077 18.8521 4.11693 19.4453 4.26726C19.8211 4.36246 20.1902 4.48758 20.5424 4.63904C21.9508 5.24467 23.1181 6.25605 23.9178 7.56377C24.1478 7.93979 24.3431 8.33552 24.501 8.74498H25.4242C28.0845 8.74498 30.4668 10.3234 31.4931 12.7661C31.8295 13.5665 32 14.4152 32 15.2886C32 18.8968 29.0501 21.8323 25.4243 21.8323ZM17.6243 5.36753C14.9583 5.36753 12.6415 7.06992 11.8593 9.60363C11.7736 9.88134 11.5163 10.0712 11.2244 10.0722C10.8583 10.0735 10.4899 10.1134 10.1296 10.1908C9.39068 10.3498 8.70701 10.6614 8.09761 11.1171C6.95701 11.9701 6.20661 13.2631 6.03881 14.6646C6.02768 14.7578 6.01895 14.8507 6.01295 14.9406C6.00421 15.0738 6.00008 15.1845 6.00008 15.2886C6.00008 18.1652 8.35181 20.5055 11.2425 20.5055H25.4243C28.3149 20.5055 30.6667 18.1653 30.6668 15.2887C30.6668 14.5918 30.531 13.9154 30.2632 13.2779C29.4449 11.3302 27.5454 10.0717 25.4243 10.0717H24.0264C23.7336 10.0717 23.4751 9.88167 23.3891 9.60317C23.2434 9.13148 23.0381 8.67731 22.779 8.25352C22.1329 7.1971 21.1507 6.346 20.0136 5.85694C19.7259 5.73314 19.4241 5.63091 19.1165 5.55296C18.6307 5.42996 18.1286 5.36753 17.6243 5.36753Z" fill="#979797"/>
</svg>
