<svg width="31" height="23" viewBox="0 0 31 23" fill="none" xmlns="http://www.w3.org/2000/svg">
<path d="M12.0144 23H24.9856C28.3019 23 31 20.3601 31 17.1153C31 16.9951 30.9954 16.8706 30.9856 16.7238C30.9787 16.6217 30.9687 16.5173 30.956 16.4129C30.7634 14.8308 29.9027 13.3718 28.5947 12.41C27.8955 11.8959 27.1104 11.5441 26.2611 11.3646C25.992 11.3077 25.7189 11.2688 25.445 11.2482C24.9939 10.0924 24.2038 9.06261 23.1875 8.31625C22.015 7.45516 20.6184 7 19.1486 7C18.5859 7 18.0256 7.06849 17.483 7.20368C17.1393 7.2893 16.8017 7.40182 16.4795 7.53802C15.1914 8.08267 14.2342 8.81492 13.3923 10.1682C13.1819 10.5064 13.0033 10.8623 12.8589 11.2305L12.0145 11.2305C9.58123 11.2305 7.40232 12.65 6.4636 14.8468C6.15598 15.5665 6 16.3298 6 17.1153C6 20.3601 8.69806 23 12.0144 23Z" fill="white"/>
<path fill-rule="evenodd" clip-rule="evenodd" d="M4.54943 15.7855C4.62415 15.2161 4.78169 14.6614 5.02048 14.129C6.07634 11.774 8.52715 10.2524 11.264 10.2524H12.2138C12.3763 9.85763 12.5772 9.47613 12.8138 9.11363C13.6365 7.85292 14.8374 6.8779 16.2863 6.29404C16.6486 6.14803 17.0284 6.02741 17.415 5.93563C18.0253 5.79071 18.6555 5.71729 19.2884 5.71729C20.9416 5.71729 22.5126 6.20521 23.8314 7.12829C24.7334 7.75972 25.4772 8.58037 26 9.50735C25.9967 9.47777 25.9932 9.44814 25.9895 9.41851C25.7888 7.83547 24.8925 6.37564 23.5303 5.41326C22.8022 4.89879 21.9845 4.54682 21.1001 4.36719C20.8199 4.3103 20.5355 4.27138 20.2502 4.25078C19.7805 3.09421 18.9576 2.06384 17.8993 1.31703C16.6782 0.455428 15.2237 0 13.6931 0C13.1071 0 12.5236 0.0685317 11.9585 0.203805C11.6006 0.28947 11.249 0.402059 10.9135 0.538347C9.57198 1.08332 8.46015 1.9934 7.69839 3.17015C7.47931 3.50851 7.29332 3.8646 7.14288 4.23305H6.26353C3.72953 4.23305 1.46039 5.65336 0.482797 7.85147C0.162435 8.57165 0 9.33535 0 10.1213C0 12.8096 1.92629 15.083 4.54943 15.7855Z" fill="white"/>
</svg>
