<svg width="33" height="29" viewBox="0 0 33 29" fill="none" xmlns="http://www.w3.org/2000/svg">
<path d="M10.5333 29H22.4667C25.5178 29 28 26.5251 28 23.4831C28 23.3704 27.9958 23.2537 27.9868 23.116C27.9804 23.0203 27.9712 22.9224 27.9596 22.8246C27.7823 21.3413 26.9905 19.9736 25.7871 19.0719C25.1439 18.5899 24.4215 18.2601 23.6402 18.0918C23.3926 18.0385 23.1414 18.002 22.8894 17.9827C22.4744 16.8991 21.7475 15.9337 20.8125 15.234C19.7338 14.4267 18.4489 14 17.0967 14C16.5791 14 16.0635 14.0642 15.5644 14.191C15.2482 14.2712 14.9375 14.3767 14.6412 14.5044C13.4561 15.015 12.5754 15.7015 11.8009 16.9702C11.6074 17.2873 11.443 17.6209 11.3101 17.9661L10.5333 17.9661C8.29473 17.9661 6.29014 19.2969 5.42651 21.3563C5.1435 22.0311 5 22.7466 5 23.4831C5 26.5251 7.48221 29 10.5333 29Z" fill="#979797"/>
<path d="M10.5333 29H22.4667C25.5178 29 28 26.5251 28 23.4831C28 23.3704 27.9958 23.2537 27.9868 23.116C27.9804 23.0203 27.9712 22.9224 27.9596 22.8246C27.7823 21.3413 26.9905 19.9736 25.7871 19.0719C25.1439 18.5899 24.4215 18.2601 23.6402 18.0918C23.3926 18.0385 23.1414 18.002 22.8894 17.9827C22.4744 16.8991 21.7475 15.9337 20.8125 15.234C19.7338 14.4267 18.4489 14 17.0967 14C16.5791 14 16.0635 14.0642 15.5644 14.191C15.2482 14.2712 14.9375 14.3767 14.6412 14.5044C13.4561 15.015 12.5754 15.7015 11.8009 16.9702C11.6074 17.2873 11.443 17.6209 11.3101 17.9661L10.5333 17.9661C8.29473 17.9661 6.29014 19.2969 5.42651 21.3563C5.1435 22.0311 5 22.7466 5 23.4831C5 26.5251 7.48221 29 10.5333 29Z" fill="#979797"/>
<path fill-rule="evenodd" clip-rule="evenodd" d="M4.0448 21.8051C4.11122 21.3071 4.25129 20.822 4.46359 20.3563C5.40231 18.2969 7.58122 16.9661 10.0145 16.9661H10.8588C11.0033 16.6209 11.1819 16.2873 11.3923 15.9702C12.1237 14.8677 13.1914 14.015 14.4795 13.5044C14.8017 13.3767 15.1393 13.2712 15.483 13.191C16.0256 13.0642 16.5859 13 17.1486 13C18.6184 13 20.015 13.4267 21.1875 14.234C21.9895 14.7861 22.6506 15.5037 23.1155 16.3143C23.1125 16.2885 23.1094 16.2627 23.1061 16.2369C22.9277 14.8524 22.1308 13.5757 20.9198 12.7341C20.2725 12.2842 19.5455 11.9764 18.7592 11.8193C18.51 11.7695 18.2572 11.7355 18.0036 11.7175C17.586 10.706 16.8544 9.80491 15.9135 9.1518C14.8279 8.39829 13.5348 8 12.174 8C11.653 8 11.1342 8.05993 10.6318 8.17824C10.3136 8.25315 10.001 8.35162 9.70271 8.47081C8.51003 8.94741 7.52155 9.74331 6.8443 10.7724C6.64953 11.0683 6.48417 11.3797 6.35043 11.702H5.56863C3.31576 11.702 1.29837 12.9441 0.429234 14.8664C0.144414 15.4962 0 16.1641 0 16.8515C0 19.2026 1.71263 21.1907 4.0448 21.8051Z" fill="#979797"/>
<path fill-rule="evenodd" clip-rule="evenodd" d="M30.444 14.9276C30.7704 14.9127 31.1082 14.8726 31.4478 14.8076C31.7362 14.7511 32.0261 14.896 32.1697 15.1633C32.3128 15.4309 32.2769 15.7636 32.0806 15.99C30.8413 17.4179 29.2363 18.3723 27.4634 18.7563C27.0375 18.2784 26.5237 17.8658 25.9403 17.5425C25.4145 17.2509 24.8538 17.0393 24.2662 16.91C24.289 16.6544 24.295 16.3945 24.283 16.1314C24.2775 16.0113 24.2672 15.8872 24.2508 15.7409C24.2392 15.6393 24.2245 15.5354 24.207 15.4317C23.9425 13.86 23.0162 12.4418 21.6658 11.5406C20.9439 11.0588 20.1435 10.7432 19.287 10.6025C19.0156 10.558 18.741 10.5316 18.4664 10.5235C18.1385 9.78449 17.6692 9.10554 17.0917 8.52868C17.6343 4.80197 20.3961 1.7164 24.0517 1.01769C24.3398 0.962636 24.6305 1.10561 24.7738 1.37319C24.9172 1.64077 24.8815 1.97343 24.6849 2.19983C23.3861 3.69658 22.7215 5.6338 22.8137 7.65463C23.0049 11.8482 26.4278 15.1108 30.444 14.9276Z" fill="white"/>
</svg>
