<svg width="36" height="27" viewBox="0 0 36 27" fill="none" xmlns="http://www.w3.org/2000/svg">
<path d="M35.2067 13.8188C34.8572 13.8673 34.5108 13.8915 34.1771 13.8915C30.0712 13.8915 26.7309 10.549 26.7309 6.44038C26.7309 4.46049 27.499 2.59609 28.8938 1.19062C29.1048 0.978034 29.1567 0.654377 29.0229 0.386371C28.8891 0.118364 28.5992 -0.0343832 28.3028 0.00659777C23.9577 0.607342 20.6809 4.37434 20.6809 8.76885C21.5973 8.97478 22.1967 10.8303 23.1703 11.4894C26.0641 11.6082 28.3541 13.0616 29.1064 17.4255C31.4794 17.4255 34.1243 16.6889 35.7973 15.0031C36.0081 14.7905 36.0603 14.4668 35.9267 14.1988C35.7927 13.9311 35.5037 13.7765 35.2067 13.8188ZM29.5232 16.2199C29.0101 13.2824 27.1721 11.2712 23.5532 11.2979C22.9879 10.9268 22.5055 9.52062 21.8298 9.19149C21.8298 6.17659 23.9081 3.08995 26.565 1.93271C25.7627 3.28345 25.3348 4.82978 25.3348 6.44038C25.3348 10.9972 28.7954 14.7607 33.2247 15.2376C32.1105 15.8786 30.8435 16.2199 29.5232 16.2199Z" fill="#54D8D8"/>
<path d="M28.4093 19.1019C28.4057 19.1019 28.4022 19.1019 28.3985 19.1018C28.1551 19.0976 27.9372 18.9505 27.8434 18.727C27.0905 16.9351 25.3429 15.7772 23.3914 15.7772H22.1052C21.8359 15.7772 21.5981 15.6023 21.5189 15.3461C21.3848 14.912 21.196 14.4942 20.9576 14.1043C20.3632 13.1323 19.4596 12.3493 18.4133 11.8993C18.1486 11.7854 17.8709 11.6914 17.5879 11.6196C17.5722 11.6157 17.5565 11.611 17.5411 11.6058C17.1263 11.465 16.6932 11.3936 16.2541 11.3936H15.1658C14.8964 11.3936 14.6586 11.2187 14.5795 10.9625C14.4746 10.6225 14.3278 10.2929 14.1433 9.98262C14.0252 9.78394 14.0298 9.53595 14.1553 9.34173C14.182 9.30041 14.2138 9.26226 14.2496 9.22851C14.2534 9.22484 14.2573 9.2213 14.2612 9.21776C15.3323 8.25923 16.7154 7.73132 18.1555 7.73132C18.9573 7.73132 19.7342 7.89063 20.4647 8.20479C21.8941 8.81937 23.007 9.96724 23.5739 11.3936H24.2279C27.1026 11.3936 29.4415 13.721 29.4415 16.5817C29.4415 17.3361 29.2817 18.0645 28.9666 18.7465C28.8664 18.9633 28.6485 19.1019 28.4093 19.1019ZM22.5421 14.5564H23.3915C25.3115 14.5564 27.0741 15.4501 28.2006 16.9201C28.21 16.8082 28.2147 16.6954 28.2147 16.5817C28.2147 14.3941 26.4262 12.6143 24.2279 12.6143H23.1396C22.8702 12.6143 22.6324 12.4394 22.5532 12.1832C22.1571 10.9003 21.2184 9.85871 19.9782 9.32537C19.4021 9.07768 18.7889 8.95207 18.1555 8.95207C17.1773 8.95207 16.2324 9.26061 15.4491 9.82887C15.5032 9.94203 15.5533 10.0567 15.5997 10.1728H16.2541C16.8201 10.1728 17.3784 10.2636 17.9141 10.4427C18.2517 10.5295 18.5832 10.6425 18.9 10.7787C20.1958 11.3359 21.2697 12.2665 22.0055 13.4696C22.2171 13.8156 22.3967 14.1797 22.5421 14.5564Z" fill="#54D8D8"/>
<path d="M4.94734 20.5409C4.93556 20.5409 4.92372 20.5406 4.91182 20.5399C2.15751 20.3832 0 18.1083 0 15.361C0 15.2555 0.00410954 15.1426 0.012574 15.0155C0.112246 13.5092 0.867665 12.1231 2.08507 11.2127C2.69126 10.7594 3.37191 10.4493 4.10813 10.291C4.32183 10.2451 4.53853 10.2124 4.75603 10.1933C5.14962 9.19882 5.82432 8.3136 6.68745 7.66886C7.70183 6.91115 8.91022 6.51062 10.1818 6.51062C10.9835 6.51062 11.7605 6.66993 12.491 6.98409C13.6056 7.46341 14.5292 8.26361 15.162 9.29843C15.171 9.31321 15.1796 9.32779 15.1882 9.34244L15.1987 9.36045C15.354 9.6215 15.4881 9.89343 15.5998 10.1729H16.2542C16.8195 10.1729 17.3772 10.2635 17.9123 10.4422C18.1674 10.5161 18.3539 10.7506 18.3539 11.0284C18.3539 11.3479 18.1071 11.6101 17.7929 11.6365C17.7259 11.6424 17.6567 11.6373 17.588 11.6199C17.141 11.5066 16.6791 11.4492 16.2151 11.4492C13.7623 11.4492 11.6307 13.0155 10.9111 15.3466C10.8322 15.6021 10.5954 15.7768 10.3269 15.7777C9.98999 15.7789 9.6511 15.8156 9.31964 15.8869C8.63979 16.033 8.01078 16.3198 7.45011 16.7391C6.4007 17.5239 5.7103 18.7136 5.55592 20.0029C5.51899 20.3113 5.2558 20.5409 4.94734 20.5409ZM10.1818 7.73136C8.14805 7.73136 6.38071 9.02999 5.78403 10.9629C5.70515 11.2184 5.46839 11.393 5.19986 11.394C4.92127 11.3949 4.64114 11.4253 4.36722 11.4842C3.80537 11.605 3.28555 11.842 2.82203 12.1887C1.8907 12.8852 1.31285 13.9448 1.2366 15.096C1.22986 15.1974 1.22673 15.2816 1.22673 15.361C1.22673 17.2787 2.60122 18.8954 4.44254 19.2538C4.75676 17.872 5.56309 16.6233 6.71315 15.7632C7.41649 15.2372 8.20626 14.8773 9.06056 14.6936C9.33123 14.6355 9.60596 14.5957 9.88148 14.5746C10.3352 13.3921 11.13 12.3386 12.1523 11.575C12.8346 11.0653 13.5924 10.6947 14.3963 10.4728C14.3222 10.3052 14.2377 10.1414 14.1434 9.98272L14.1139 9.93279C13.6212 9.1271 12.8719 8.47779 12.0045 8.10473C11.4284 7.85698 10.8152 7.73136 10.1818 7.73136Z" fill="#54D8D8"/>
<path d="M23.3915 26.5974H10.3436C7.00759 26.5974 4.29358 23.8966 4.29358 20.577C4.29358 20.454 4.29818 20.3267 4.30805 20.1764C4.31505 20.072 4.32504 19.9652 4.3378 19.8584C4.53163 18.2398 5.39739 16.7472 6.71312 15.7632C7.4164 15.2372 8.20623 14.8773 9.06053 14.6936C9.3312 14.6355 9.60593 14.5957 9.88145 14.5746C10.3352 13.3921 11.13 12.3386 12.1522 11.575C13.3317 10.694 14.7366 10.2284 16.2151 10.2284C16.7811 10.2284 17.3447 10.2985 17.8905 10.4368C18.2363 10.5244 18.5759 10.6395 18.8999 10.7788C20.1957 11.336 21.2697 12.2665 22.0055 13.4697C22.2171 13.8157 22.3967 14.1798 22.542 14.5565H23.3914C25.839 14.5565 28.0308 16.0087 28.9751 18.2561C29.2846 18.9925 29.4415 19.7733 29.4415 20.577C29.4415 23.8966 26.7274 26.5974 23.3915 26.5974ZM16.2151 11.4491C13.7623 11.4491 11.6308 13.0154 10.9111 15.3465C10.8322 15.602 10.5955 15.7767 10.3269 15.7776C9.99008 15.7788 9.65113 15.8155 9.31967 15.8867C8.63982 16.033 8.01081 16.3197 7.45014 16.739C6.40073 17.5237 5.71033 18.7134 5.55594 20.0028C5.5457 20.0886 5.53767 20.174 5.53215 20.2568C5.52411 20.3793 5.52031 20.4812 5.52031 20.577C5.52031 23.2235 7.68401 25.3767 10.3436 25.3767H23.3915C26.051 25.3767 28.2148 23.2236 28.2149 20.577C28.2149 19.9359 28.0899 19.3135 27.8435 18.727C27.0906 16.935 25.343 15.7772 23.3915 15.7772H22.1054C21.836 15.7772 21.5982 15.6023 21.5191 15.3461C21.385 14.9121 21.1961 14.4942 20.9577 14.1043C20.3633 13.1324 19.4596 12.3493 18.4134 11.8993C18.1487 11.7855 17.871 11.6914 17.5881 11.6197C17.1411 11.5065 16.6791 11.4491 16.2151 11.4491Z" fill="#54D8D8"/>
</svg>
