<svg width="36" height="28" viewBox="0 0 36 28" fill="none" xmlns="http://www.w3.org/2000/svg">
<path d="M35.2067 13.8188C34.8572 13.8673 34.5108 13.8915 34.1771 13.8915C30.0712 13.8915 26.7309 10.549 26.7309 6.44038C26.7309 4.46049 27.499 2.59609 28.8938 1.19062C29.1048 0.978034 29.1567 0.654377 29.0229 0.386371C28.8891 0.118364 28.5992 -0.0343832 28.3028 0.00659777C23.9577 0.607342 20.6809 4.37434 20.6809 8.76885C21.5973 8.97478 22.1967 10.8303 23.1703 11.4894C26.0641 11.6082 28.3541 13.0616 29.1064 17.4255C31.4794 17.4255 34.1243 16.6889 35.7973 15.0031C36.0081 14.7905 36.0603 14.4668 35.9267 14.1988C35.7927 13.9311 35.5037 13.7765 35.2067 13.8188ZM29.5232 16.2199C29.0101 13.2824 27.1721 11.2712 23.5532 11.2979C22.9879 10.9268 22.5055 9.52062 21.8298 9.19149C21.8298 6.17659 23.9081 3.08995 26.565 1.93271C25.7627 3.28345 25.3348 4.82978 25.3348 6.44038C25.3348 10.9972 28.7954 14.7607 33.2247 15.2376C32.1105 15.8786 30.8435 16.2199 29.5232 16.2199Z" fill="white"/>
<path d="M21.8298 9.19149C21.8298 6.17659 23.9081 3.08995 26.565 1.93271C25.7627 3.28345 25.3348 4.82978 25.3348 6.44038C25.3348 10.9972 28.7954 14.7607 33.2247 15.2376C32.1105 15.8786 30.8435 16.2199 29.5232 16.2199C29.0101 13.2824 27.1721 11.2712 23.5532 11.2979C22.9879 10.9268 22.5055 9.52062 21.8298 9.19149Z" fill="white"/>
<path d="M28.4093 19.1019C28.4057 19.1019 28.4022 19.1019 28.3985 19.1018C28.1551 19.0976 27.9372 18.9505 27.8434 18.727C27.0905 16.9351 25.3429 15.7772 23.3914 15.7772H22.1052C21.8359 15.7772 21.5981 15.6023 21.5189 15.3461C21.3848 14.912 21.196 14.4942 20.9576 14.1043C20.3632 13.1323 19.4596 12.3493 18.4133 11.8993C18.1486 11.7854 17.8709 11.6914 17.5879 11.6196C17.5722 11.6157 17.5565 11.611 17.5411 11.6058C17.1263 11.465 16.6932 11.3936 16.2541 11.3936H15.1658C14.8964 11.3936 14.6586 11.2187 14.5795 10.9625C14.4746 10.6225 14.3278 10.2929 14.1433 9.98262C14.0252 9.78394 14.0298 9.53595 14.1553 9.34173C14.182 9.30041 14.2138 9.26226 14.2496 9.22851C14.2534 9.22484 14.2573 9.2213 14.2612 9.21776C15.3323 8.25923 16.7154 7.73132 18.1555 7.73132C18.9573 7.73132 19.7342 7.89063 20.4647 8.20479C21.8941 8.81937 23.007 9.96724 23.5739 11.3936H24.2279C27.1026 11.3936 29.4415 13.721 29.4415 16.5817C29.4415 17.3361 29.2817 18.0645 28.9666 18.7465C28.8664 18.9633 28.6485 19.1019 28.4093 19.1019ZM22.5421 14.5564H23.3915C25.3115 14.5564 27.0741 15.4501 28.2006 16.9201C28.21 16.8082 28.2147 16.6954 28.2147 16.5817C28.2147 14.3941 26.4262 12.6143 24.2279 12.6143H23.1396C22.8702 12.6143 22.6324 12.4394 22.5532 12.1832C22.1571 10.9003 21.2184 9.85871 19.9782 9.32537C19.4021 9.07768 18.7889 8.95207 18.1555 8.95207C17.1773 8.95207 16.2324 9.26061 15.4491 9.82887C15.5032 9.94203 15.5533 10.0567 15.5997 10.1728H16.2541C16.8201 10.1728 17.3784 10.2636 17.9141 10.4427C18.2517 10.5295 18.5832 10.6425 18.9 10.7787C20.1958 11.3359 21.2697 12.2665 22.0055 13.4696C22.2171 13.8156 22.3967 14.1797 22.5421 14.5564Z" fill="#979797"/>
<path d="M22.5421 14.5564H23.3915C25.3115 14.5564 27.0741 15.4501 28.2006 16.9201C28.21 16.8082 28.2147 16.6954 28.2147 16.5817C28.2147 14.3941 26.4262 12.6143 24.2279 12.6143H23.1396C22.8702 12.6143 22.6324 12.4394 22.5532 12.1832C22.1571 10.9003 21.2184 9.85871 19.9782 9.32537C19.4021 9.07768 18.7889 8.95207 18.1555 8.95207C17.1773 8.95207 16.2324 9.26061 15.4491 9.82887C15.5032 9.94203 15.5533 10.0567 15.5997 10.1728H16.2541C16.8201 10.1728 17.3784 10.2636 17.9141 10.4427C18.2517 10.5295 18.5832 10.6425 18.9 10.7787C20.1958 11.3359 21.2697 12.2665 22.0055 13.4696C22.2171 13.8156 22.3967 14.1797 22.5421 14.5564Z" fill="#979797"/>
<path d="M4.94734 20.5409C4.93556 20.5409 4.92372 20.5406 4.91182 20.5399C2.15751 20.3832 0 18.1083 0 15.361C0 15.2555 0.00410954 15.1426 0.012574 15.0155C0.112246 13.5092 0.867665 12.1231 2.08507 11.2127C2.69126 10.7594 3.37191 10.4493 4.10813 10.291C4.32183 10.2451 4.53853 10.2124 4.75603 10.1933C5.14962 9.19882 5.82432 8.3136 6.68745 7.66886C7.70183 6.91115 8.91022 6.51062 10.1818 6.51062C10.9835 6.51062 11.7605 6.66993 12.491 6.98409C13.6056 7.46341 14.5292 8.26361 15.162 9.29843C15.171 9.31321 15.1796 9.32779 15.1882 9.34244L15.1987 9.36045C15.354 9.6215 15.4881 9.89343 15.5998 10.1729H16.2542C16.8195 10.1729 17.3772 10.2635 17.9123 10.4422C18.1674 10.5161 18.3539 10.7506 18.3539 11.0284C18.3539 11.3479 18.1071 11.6101 17.7929 11.6365C17.7259 11.6424 17.6567 11.6373 17.588 11.6199C17.141 11.5066 16.6791 11.4492 16.2151 11.4492C13.7623 11.4492 11.6307 13.0155 10.9111 15.3466C10.8322 15.6021 10.5954 15.7768 10.3269 15.7777C9.98999 15.7789 9.6511 15.8156 9.31964 15.8869C8.63979 16.033 8.01078 16.3198 7.45011 16.7391C6.4007 17.5239 5.7103 18.7136 5.55592 20.0029C5.51899 20.3113 5.2558 20.5409 4.94734 20.5409ZM10.1818 7.73136C8.14805 7.73136 6.38071 9.02999 5.78403 10.9629C5.70515 11.2184 5.46839 11.393 5.19986 11.394C4.92127 11.3949 4.64114 11.4253 4.36722 11.4842C3.80537 11.605 3.28555 11.842 2.82203 12.1887C1.8907 12.8852 1.31285 13.9448 1.2366 15.096C1.22986 15.1974 1.22673 15.2816 1.22673 15.361C1.22673 17.2787 2.60122 18.8954 4.44254 19.2538C4.75676 17.872 5.56309 16.6233 6.71315 15.7632C7.41649 15.2372 8.20626 14.8773 9.06056 14.6936C9.33123 14.6355 9.60596 14.5957 9.88148 14.5746C10.3352 13.3921 11.13 12.3386 12.1523 11.575C12.8346 11.0653 13.5924 10.6947 14.3963 10.4728C14.3222 10.3052 14.2377 10.1414 14.1434 9.98272L14.1139 9.93279C13.6212 9.1271 12.8719 8.47779 12.0045 8.10473C11.4284 7.85698 10.8152 7.73136 10.1818 7.73136Z" fill="#979797"/>
<path d="M10.1818 7.73136C8.14805 7.73136 6.38071 9.02999 5.78403 10.9629C5.70515 11.2184 5.46839 11.393 5.19986 11.394C4.92127 11.3949 4.64114 11.4253 4.36722 11.4842C3.80537 11.605 3.28555 11.842 2.82203 12.1887C1.8907 12.8852 1.31285 13.9448 1.2366 15.096C1.22986 15.1974 1.22673 15.2816 1.22673 15.361C1.22673 17.2787 2.60122 18.8954 4.44254 19.2538C4.75676 17.872 5.56309 16.6233 6.71315 15.7632C7.41649 15.2372 8.20626 14.8773 9.06056 14.6936C9.33123 14.6355 9.60596 14.5957 9.88148 14.5746C10.3352 13.3921 11.13 12.3386 12.1523 11.575C12.8346 11.0653 13.5924 10.6947 14.3963 10.4728C14.3222 10.3052 14.2377 10.1414 14.1434 9.98272L14.1139 9.93279C13.6212 9.1271 12.8719 8.47779 12.0045 8.10473C11.4284 7.85698 10.8152 7.73136 10.1818 7.73136Z" fill="#979797"/>
<path d="M23.3914 26.5974H10.3434C7.00747 26.5974 4.29346 23.8966 4.29346 20.577C4.29346 20.454 4.29806 20.3267 4.30793 20.1764C4.31492 20.072 4.32492 19.9652 4.33768 19.8584C4.5315 18.2398 5.39727 16.7472 6.713 15.7632C7.41628 15.2372 8.20611 14.8773 9.0604 14.6936C9.33108 14.6355 9.60581 14.5957 9.88133 14.5746C10.335 13.3921 11.1299 12.3386 12.1521 11.575C13.3316 10.694 14.7365 10.2284 16.2149 10.2284C16.7809 10.2284 17.3446 10.2985 17.8904 10.4368C18.2362 10.5244 18.5758 10.6395 18.8998 10.7788C20.1956 11.336 21.2695 12.2665 22.0053 13.4697C22.2169 13.8157 22.3966 14.1798 22.5419 14.5565H23.3913C25.8389 14.5565 28.0307 16.0087 28.975 18.2561C29.2844 18.9925 29.4413 19.7733 29.4413 20.577C29.4413 23.8966 26.7273 26.5974 23.3914 26.5974ZM16.215 11.4491C13.7622 11.4491 11.6306 13.0154 10.911 15.3465C10.8321 15.602 10.5953 15.7767 10.3268 15.7776C9.98996 15.7788 9.65101 15.8155 9.31955 15.8867C8.6397 16.033 8.01069 16.3197 7.45001 16.739C6.40061 17.5237 5.71021 18.7134 5.55582 20.0028C5.54558 20.0886 5.53754 20.174 5.53202 20.2568C5.52399 20.3793 5.52019 20.4812 5.52019 20.577C5.52019 23.2235 7.68389 25.3767 10.3434 25.3767H23.3914C26.0509 25.3767 28.2147 23.2236 28.2147 20.577C28.2147 19.9359 28.0898 19.3135 27.8434 18.727C27.0905 16.935 25.3429 15.7772 23.3914 15.7772H22.1053C21.8359 15.7772 21.5981 15.6023 21.5189 15.3461C21.3849 14.9121 21.196 14.4942 20.9576 14.1043C20.3632 13.1324 19.4595 12.3493 18.4133 11.8993C18.1486 11.7855 17.8709 11.6914 17.5879 11.6197C17.1409 11.5065 16.679 11.4491 16.215 11.4491Z" fill="#979797"/>
<path d="M16.215 11.4491C13.7622 11.4491 11.6306 13.0154 10.911 15.3465C10.8321 15.602 10.5953 15.7767 10.3268 15.7776C9.98996 15.7788 9.65101 15.8155 9.31955 15.8867C8.6397 16.033 8.01069 16.3197 7.45001 16.739C6.40061 17.5237 5.71021 18.7134 5.55582 20.0028C5.54558 20.0886 5.53754 20.174 5.53202 20.2568C5.52399 20.3793 5.52019 20.4812 5.52019 20.577C5.52019 23.2235 7.68389 25.3767 10.3434 25.3767H23.3914C26.0509 25.3767 28.2147 23.2236 28.2147 20.577C28.2147 19.9359 28.0898 19.3135 27.8434 18.727C27.0905 16.935 25.3429 15.7772 23.3914 15.7772H22.1053C21.8359 15.7772 21.5981 15.6023 21.5189 15.3461C21.3849 14.9121 21.196 14.4942 20.9576 14.1043C20.3632 13.1324 19.4595 12.3493 18.4133 11.8993C18.1486 11.7855 17.8709 11.6914 17.5879 11.6197C17.1409 11.5065 16.679 11.4491 16.215 11.4491Z" fill="#979797"/>
<path d="M28.9482 19.4571C28.9445 19.4571 28.9409 19.4571 28.9372 19.4571C28.6891 19.4526 28.4671 19.2954 28.3715 19.0565C27.6043 17.1413 25.8236 15.9039 23.8351 15.9039H22.5245C22.25 15.9039 22.0077 15.717 21.9271 15.4431C21.7904 14.9792 21.598 14.5327 21.3551 14.1159C20.7494 13.0772 19.8286 12.2403 18.7625 11.7594C18.4928 11.6376 18.2098 11.5371 17.9215 11.4605C17.9054 11.4562 17.8895 11.4513 17.8738 11.4457C17.4511 11.2952 17.0098 11.2188 16.5624 11.2188H15.4534C15.1789 11.2188 14.9366 11.0319 14.856 10.7581C14.7491 10.3948 14.5995 10.0425 14.4116 9.71089C14.2912 9.49856 14.2959 9.23351 14.4238 9.02594C14.4509 8.98177 14.4833 8.941 14.5198 8.90493C14.5238 8.90101 14.5277 8.89723 14.5317 8.89345C15.6231 7.86902 17.0324 7.30481 18.4999 7.30481C19.3168 7.30481 20.1085 7.47507 20.8529 7.81083C22.3093 8.46767 23.4434 9.69445 24.021 11.2188H24.6874C27.6167 11.2188 29.9999 13.7063 29.9999 16.7637C29.9999 17.57 29.8371 18.3484 29.516 19.0773C29.4139 19.3091 29.1919 19.4571 28.9482 19.4571ZM22.9696 14.5991H23.8351C25.7916 14.5991 27.5876 15.5543 28.7354 17.1254C28.7451 17.0057 28.7499 16.8852 28.7499 16.7637C28.7499 14.4257 26.9274 12.5235 24.6874 12.5235H23.5784C23.3039 12.5235 23.0616 12.3366 22.981 12.0628C22.5773 10.6917 21.6209 9.57847 20.3571 9.00845C19.7701 8.74374 19.1453 8.60949 18.4999 8.60949C17.5031 8.60949 16.5403 8.93924 15.7421 9.54657C15.7972 9.66751 15.8483 9.79009 15.8956 9.91416H16.5624C17.1391 9.91416 17.7079 10.0112 18.2538 10.2026C18.5978 10.2953 18.9357 10.4161 19.2584 10.5617C20.5788 11.1573 21.6731 12.1517 22.4229 13.4376C22.6385 13.8074 22.8215 14.1965 22.9696 14.5991Z" fill="#747473"/>
<path d="M5.04119 20.995C5.02919 20.995 5.01712 20.9946 5.005 20.9939C2.19844 20.8263 0 18.3951 0 15.4589C0 15.3462 0.00418749 15.2254 0.0128125 15.0897C0.114375 13.4798 0.884125 11.9984 2.12462 11.0254C2.74231 10.5409 3.43587 10.2095 4.18606 10.0403C4.40381 9.9912 4.62462 9.9563 4.84625 9.93588C5.24731 8.87303 5.93481 7.92694 6.81431 7.23788C7.84794 6.42806 9.07925 6 10.375 6C11.1919 6 11.9836 6.17026 12.728 6.50602C13.8637 7.0183 14.8048 7.87351 15.4496 8.97949C15.4588 8.99527 15.4676 9.01087 15.4763 9.02652L15.4871 9.04577C15.6452 9.32477 15.7819 9.61539 15.8957 9.91409H16.5625C17.1386 9.91409 17.7069 10.0109 18.2521 10.2019C18.5121 10.2809 18.7021 10.5315 18.7021 10.8283C18.7021 11.1698 18.4506 11.4501 18.1304 11.4783C18.0621 11.4846 17.9916 11.4792 17.9216 11.4605C17.4661 11.3395 16.9955 11.2781 16.5227 11.2781C14.0234 11.2781 11.8514 12.9521 11.1181 15.4435C11.0377 15.7166 10.7964 15.9033 10.5228 15.9043C10.1795 15.9055 9.83418 15.9448 9.49643 16.0209C8.80368 16.1771 8.16275 16.4836 7.59144 16.9317C6.52212 17.7705 5.81862 19.0419 5.66131 20.4199C5.62369 20.7496 5.3555 20.995 5.04119 20.995ZM10.375 7.30468C8.30262 7.30468 6.50175 8.69259 5.89375 10.7583C5.81337 11.0314 5.57212 11.2181 5.2985 11.2191C5.01462 11.2201 4.72919 11.2526 4.45006 11.3156C3.87756 11.4447 3.34787 11.698 2.87556 12.0684C1.92656 12.8128 1.33775 13.9453 1.26006 15.1757C1.25319 15.2841 1.25 15.374 1.25 15.4589C1.25 17.5084 2.65056 19.2363 4.52681 19.6193C4.847 18.1426 5.66862 16.8079 6.8405 15.8887C7.55719 15.3265 8.36193 14.9419 9.23243 14.7456C9.50825 14.6835 9.78818 14.6409 10.0689 14.6184C10.5312 13.3546 11.3412 12.2287 12.3828 11.4126C13.0781 10.8679 13.8502 10.4717 14.6694 10.2346C14.5939 10.0555 14.5078 9.88043 14.4117 9.71082L14.3817 9.65746C13.8796 8.79638 13.1161 8.10242 12.2322 7.70371C11.6452 7.43893 11.0204 7.30468 10.375 7.30468Z" fill="#747473"/>
<path d="M23.8352 27.4677H10.5398C7.1405 27.4677 4.375 24.5813 4.375 21.0333C4.375 20.9019 4.37969 20.7659 4.38975 20.6053C4.39688 20.4936 4.40706 20.3795 4.42006 20.2653C4.61756 18.5355 5.49975 16.9402 6.84044 15.8886C7.55706 15.3264 8.36188 14.9418 9.23238 14.7455C9.50819 14.6833 9.78813 14.6408 10.0689 14.6183C10.5312 13.3545 11.3411 12.2285 12.3827 11.4125C13.5846 10.4709 15.0161 9.97327 16.5226 9.97327C17.0994 9.97327 17.6738 10.0482 18.2299 10.196C18.5822 10.2896 18.9283 10.4126 19.2584 10.5615C20.5788 11.1571 21.6731 12.1516 22.4229 13.4374C22.6385 13.8072 22.8216 14.1963 22.9696 14.5989H23.8351C26.3292 14.5989 28.5626 16.151 29.5248 18.5529C29.8401 19.3399 29.9999 20.1745 29.9999 21.0333C29.9999 24.5813 27.2344 27.4677 23.8352 27.4677ZM16.5227 11.2779C14.0234 11.2779 11.8514 12.9518 11.1181 15.4432C11.0377 15.7163 10.7964 15.903 10.5228 15.904C10.1796 15.9052 9.83419 15.9445 9.49644 16.0206C8.80369 16.1769 8.16275 16.4833 7.59144 16.9315C6.52212 17.7702 5.81863 19.0416 5.66131 20.4197C5.65088 20.5114 5.64269 20.6027 5.63706 20.6911C5.62888 20.822 5.625 20.931 5.625 21.0333C5.625 23.8619 7.82975 26.1631 10.5398 26.1631H23.8353C26.5452 26.1631 28.75 23.8619 28.7501 21.0334C28.7501 20.3482 28.6227 19.683 28.3717 19.0562C27.6045 17.141 25.8238 15.9035 23.8353 15.9035H22.5247C22.2502 15.9035 22.0079 15.7166 21.9272 15.4428C21.7906 14.979 21.5982 14.5324 21.3552 14.1157C20.7496 13.0769 19.8287 12.24 18.7627 11.7591C18.493 11.6374 18.21 11.5369 17.9217 11.4602C17.4662 11.3393 16.9955 11.2779 16.5227 11.2779Z" fill="#747473"/>
</svg>
