<svg width="30" height="31" viewBox="0 0 30 31" fill="none" xmlns="http://www.w3.org/2000/svg">
<path d="M23.4135 6.21993C23.3039 6.21993 23.191 6.2232 23.0764 6.23139C21.6528 2.52986 18.0281 0 14.0239 0C8.78252 0 4.49845 4.17935 4.33153 9.38144C1.8884 9.72345 0 11.8279 0 14.3643C0 17.1216 2.2304 19.3684 4.991 19.3945C5.00736 19.3962 5.02536 19.3962 5.04173 19.3962L23.4413 19.3945C27.0578 19.3798 30 16.4245 30 12.8064C30.0016 9.17526 27.0463 6.21993 23.4135 6.21993ZM23.4381 17.691L5.07773 17.6927C5.063 17.691 5.04664 17.691 5.03027 17.691C3.19588 17.691 1.70349 16.1987 1.70349 14.3643C1.70349 12.5364 3.18769 11.0473 5.01391 11.0375C5.01064 11.0375 5.01064 11.0375 5.01391 11.0391C5.05973 11.044 5.10391 11.0506 5.14973 11.0522C5.39519 11.0702 5.6341 10.9769 5.80756 10.8051C5.97938 10.6333 6.07102 10.3927 6.05466 10.1489L6.04647 10.0262C6.03829 9.91654 6.03011 9.8069 6.03011 9.69727C6.03011 5.29046 9.61545 1.70512 14.0223 1.70512C17.5225 1.70512 20.6693 4.04844 21.6757 7.40141C21.7984 7.81214 22.2075 8.06906 22.6313 7.99705C22.9242 7.94796 23.1795 7.92505 23.4119 7.92505C26.1037 7.92505 28.2949 10.1162 28.2949 12.8081C28.2965 15.4885 26.1152 17.6796 23.4381 17.691Z" fill="#979797"/>
<path d="M23.4381 17.691L5.07773 17.6927C5.063 17.691 5.04664 17.691 5.03027 17.691C3.19588 17.691 1.70349 16.1987 1.70349 14.3643C1.70349 12.5364 3.18769 11.0473 5.01391 11.0375C5.01064 11.0375 5.01064 11.0375 5.01391 11.0391C5.05973 11.044 5.10391 11.0506 5.14973 11.0522C5.39519 11.0702 5.6341 10.9769 5.80756 10.8051C5.97938 10.6333 6.07102 10.3927 6.05466 10.1489L6.04647 10.0262C6.03829 9.91654 6.03011 9.8069 6.03011 9.69727C6.03011 5.29046 9.61545 1.70512 14.0223 1.70512C17.5225 1.70512 20.6693 4.04844 21.6757 7.40141C21.7984 7.81214 22.2075 8.06906 22.6313 7.99705C22.9242 7.94796 23.1795 7.92505 23.4119 7.92505C26.1037 7.92505 28.2949 10.1162 28.2949 12.8081C28.2965 15.4885 26.1152 17.6796 23.4381 17.691Z" fill="#979797"/>
<path d="M11.1554 20.473C10.7545 20.2259 10.2292 20.3519 9.98373 20.7528L6.81894 25.9075C6.57349 26.3084 6.69785 26.8337 7.09877 27.0791C7.23786 27.1642 7.39168 27.2051 7.54387 27.2051C7.83024 27.2051 8.11006 27.0611 8.27043 26.7993L11.4352 21.6446C11.6807 21.2437 11.5563 20.7184 11.1554 20.473Z" fill="#1787E0"/>
<path d="M14.8795 20.4714C14.4786 20.2259 13.9533 20.3519 13.7079 20.7545L8.6236 29.069C8.37814 29.4699 8.50414 29.9952 8.9067 30.2406C9.04579 30.3257 9.19961 30.365 9.35016 30.365C9.63653 30.365 9.91799 30.2194 10.0784 29.9575L15.1626 21.643C15.4081 21.2421 15.2804 20.7168 14.8795 20.4714Z" fill="#1787E0"/>
<path d="M14.5557 27.0808C14.6948 27.1658 14.8486 27.2068 15.0008 27.2068C15.2872 27.2068 15.567 27.0628 15.7273 26.8009L18.8921 21.6463C19.1376 21.2454 19.0132 20.7201 18.6123 20.4746C18.2114 20.2292 17.6861 20.3535 17.4407 20.7561L14.2759 25.9107C14.0288 26.31 14.1531 26.8337 14.5557 27.0808Z" fill="#1787E0"/>
</svg>
