<svg width="34" height="34" viewBox="0 0 34 34" fill="none" xmlns="http://www.w3.org/2000/svg">
<path d="M20.8304 12.5187C20.7329 12.5187 20.6324 12.5216 20.5305 12.5289C19.2639 9.23574 16.0392 6.98499 12.4767 6.98499C7.81359 6.98499 4.00215 10.7032 3.85366 15.3314C1.68006 15.6357 0 17.5079 0 19.7645C0 22.2176 1.98433 24.2165 4.44037 24.2398C4.45493 24.2413 4.47094 24.2413 4.4855 24.2413L20.8552 24.2398C24.0726 24.2267 26.6902 21.5974 26.6902 18.3785C26.6917 15.148 24.0624 12.5187 20.8304 12.5187ZM20.8523 22.7243L4.51753 22.7257C4.50442 22.7243 4.48987 22.7243 4.47531 22.7243C2.84329 22.7243 1.51555 21.3965 1.51555 19.7645C1.51555 18.1383 2.83601 16.8135 4.46075 16.8047C4.45784 16.8047 4.45784 16.8047 4.46075 16.8062C4.50151 16.8106 4.54082 16.8164 4.58159 16.8178C4.79996 16.8339 5.01252 16.7509 5.16684 16.598C5.31971 16.4451 5.40123 16.2311 5.38667 16.0142L5.3794 15.905C5.37212 15.8075 5.36484 15.7099 5.36484 15.6124C5.36484 11.6918 8.55462 8.50199 12.4752 8.50199C15.5893 8.50199 18.3889 10.5868 19.2843 13.5698C19.3935 13.9353 19.7574 14.1638 20.1345 14.0998C20.3951 14.0561 20.6222 14.0357 20.829 14.0357C23.2238 14.0357 25.1732 15.9851 25.1732 18.38C25.1747 20.7647 23.234 22.7141 20.8523 22.7243Z" fill="#54D8D8"/>
<path d="M9.92456 25.1994C9.56787 24.9796 9.10054 25.0917 8.88217 25.4483L6.06654 30.0343C5.84816 30.391 5.9588 30.8583 6.31549 31.0767C6.43924 31.1524 6.57609 31.1888 6.71148 31.1888C6.96626 31.1888 7.21521 31.0607 7.35788 30.8277L10.1735 26.2418C10.3919 25.8851 10.2812 25.4178 9.92456 25.1994Z" fill="#54D8D8"/>
<path d="M13.238 25.1978C12.8813 24.9794 12.414 25.0915 12.1956 25.4497L7.67227 32.8469C7.4539 33.2036 7.566 33.6709 7.92414 33.8893C8.04789 33.965 8.18474 33.9999 8.31868 33.9999C8.57345 33.9999 8.82386 33.8703 8.96653 33.6374L13.4899 26.2402C13.7083 25.8835 13.5947 25.4162 13.238 25.1978Z" fill="#54D8D8"/>
<path d="M12.9499 31.0781C13.0736 31.1538 13.2105 31.1902 13.3459 31.1902C13.6007 31.1902 13.8496 31.062 13.9923 30.8291L16.8079 26.2431C17.0263 25.8865 16.9157 25.4191 16.559 25.2008C16.2023 24.9824 15.735 25.093 15.5166 25.4512L12.701 30.0371C12.4811 30.3923 12.5918 30.8582 12.9499 31.0781Z" fill="#54D8D8"/>
<path d="M32.988 14.9135C32.608 14.9657 32.2313 14.9919 31.8684 14.9919C27.4041 14.9919 23.7722 11.3846 23.7722 6.95054C23.7722 4.81381 24.6074 2.80173 26.1239 1.28494C26.3534 1.05551 26.4098 0.706212 26.2643 0.416976C26.1188 0.12774 25.8036 -0.0371068 25.4813 0.00712039C20.7568 0.655451 17.194 4.72084 17.194 9.46345C18.1904 9.68569 18.8421 11.6882 19.9007 12.3995C23.0472 12.5277 25.5371 14.0962 26.3551 18.8059C28.9353 18.8059 31.811 18.0109 33.6301 16.1915C33.8594 15.9621 33.916 15.6128 33.7708 15.3236C33.6251 15.0346 33.3108 14.8677 32.988 14.9135ZM26.8083 17.5048C26.2503 14.3345 24.2519 12.164 20.3171 12.1928C19.7024 11.7923 19.1779 10.2748 18.4432 9.91957C18.4432 6.66585 20.7029 3.33472 23.5918 2.0858C22.7194 3.54354 22.2541 5.21236 22.2541 6.95054C22.2541 11.8683 26.0169 15.9299 30.8329 16.4446C29.6215 17.1364 28.2439 17.5048 26.8083 17.5048Z" fill="#54D8D8"/>
</svg>
