<svg width="34" height="33" viewBox="0 0 34 33" fill="none" xmlns="http://www.w3.org/2000/svg">
<path d="M32.9879 14.9135C32.6079 14.9657 32.2311 14.9919 31.8683 14.9919C27.404 14.9919 23.7721 11.3846 23.7721 6.95054C23.7721 4.81382 24.6072 2.80173 26.1238 1.28494C26.3533 1.05551 26.4097 0.706212 26.2642 0.416976C26.1187 0.12774 25.8035 -0.0371068 25.4811 0.00712039C20.7567 0.655451 17.1938 4.72084 17.1938 9.46345C18.1902 9.68569 18.8419 11.6882 19.9005 12.3995C23.0471 12.5277 25.537 14.0962 26.355 18.8059C28.9352 18.8059 31.8109 18.0109 33.63 16.1915C33.8592 15.9621 33.9159 15.6128 33.7707 15.3236C33.625 15.0346 33.3107 14.8677 32.9879 14.9135ZM26.8082 17.5048C26.2502 14.3345 24.2518 12.164 20.317 12.1928C19.7023 11.7923 19.1777 10.2748 18.4431 9.91957C18.4431 6.66585 20.7028 3.33472 23.5917 2.0858C22.7193 3.54354 22.254 5.21236 22.254 6.95054C22.254 11.8683 26.0167 15.9299 30.8328 16.4446C29.6214 17.1364 28.2437 17.5048 26.8082 17.5048Z" fill="white"/>
<path d="M18.4431 9.91957C18.4431 6.66585 20.7028 3.33472 23.5917 2.0858C22.7193 3.54354 22.254 5.21236 22.254 6.95054C22.254 11.8683 26.0167 15.9299 30.8328 16.4446C29.6214 17.1364 28.2437 17.5048 26.8082 17.5048C26.2502 14.3345 24.2518 12.164 20.317 12.1928C19.7023 11.7923 19.1777 10.2748 18.4431 9.91957Z" fill="white"/>
<path d="M20.8304 11.5187C20.7329 11.5187 20.6324 11.5216 20.5305 11.5289C19.2639 8.23574 16.0392 5.98499 12.4767 5.98499C7.81359 5.98499 4.00215 9.70325 3.85366 14.3314C1.68006 14.6357 0 16.5079 0 18.7645C0 21.2176 1.98433 23.2165 4.44037 23.2398C4.45493 23.2413 4.47094 23.2413 4.4855 23.2413L20.8552 23.2398C24.0726 23.2267 26.6902 20.5974 26.6902 17.3785C26.6917 14.148 24.0624 11.5187 20.8304 11.5187ZM20.8523 21.7243L4.51753 21.7257C4.50442 21.7243 4.48987 21.7243 4.47531 21.7243C2.84329 21.7243 1.51555 20.3965 1.51555 18.7645C1.51555 17.1383 2.83601 15.8135 4.46075 15.8047C4.45784 15.8047 4.45784 15.8047 4.46075 15.8062C4.50151 15.8106 4.54082 15.8164 4.58159 15.8178C4.79996 15.8339 5.01252 15.7509 5.16684 15.598C5.31971 15.4451 5.40123 15.2311 5.38667 15.0142L5.3794 14.905C5.37212 14.8075 5.36484 14.7099 5.36484 14.6124C5.36484 10.6918 8.55462 7.50199 12.4752 7.50199C15.5893 7.50199 18.3889 9.58678 19.2843 12.5698C19.3935 12.9353 19.7574 13.1638 20.1345 13.0998C20.3951 13.0561 20.6222 13.0357 20.829 13.0357C23.2238 13.0357 25.1732 14.9851 25.1732 17.38C25.1747 19.7647 23.234 21.7141 20.8523 21.7243Z" fill="#727272"/>
<path d="M20.8523 21.7243L4.51753 21.7257C4.50442 21.7243 4.48987 21.7243 4.47531 21.7243C2.84329 21.7243 1.51555 20.3965 1.51555 18.7645C1.51555 17.1383 2.83601 15.8135 4.46075 15.8047C4.45784 15.8047 4.45784 15.8047 4.46075 15.8062C4.50151 15.8106 4.54082 15.8164 4.58159 15.8178C4.79996 15.8339 5.01252 15.7509 5.16684 15.598C5.31971 15.4451 5.40123 15.2311 5.38667 15.0142L5.3794 14.905C5.37212 14.8075 5.36484 14.7099 5.36484 14.6124C5.36484 10.6918 8.55462 7.50199 12.4752 7.50199C15.5893 7.50199 18.3889 9.58678 19.2843 12.5698C19.3935 12.9353 19.7574 13.1638 20.1345 13.0998C20.3951 13.0561 20.6222 13.0357 20.829 13.0357C23.2238 13.0357 25.1732 14.9851 25.1732 17.38C25.1747 19.7647 23.234 21.7141 20.8523 21.7243Z" fill="#727272"/>
<path d="M9.92456 24.1994C9.56787 23.9796 9.10054 24.0917 8.88217 24.4483L6.06654 29.0343C5.84816 29.391 5.9588 29.8583 6.31549 30.0767C6.43924 30.1524 6.57609 30.1888 6.71148 30.1888C6.96626 30.1888 7.21521 30.0607 7.35788 29.8277L10.1735 25.2418C10.3919 24.8851 10.2812 24.4178 9.92456 24.1994Z" fill="#1787E0"/>
<path d="M13.238 24.1978C12.8813 23.9794 12.414 24.0915 12.1956 24.4497L7.67227 31.8469C7.4539 32.2036 7.566 32.6709 7.92414 32.8893C8.04789 32.965 8.18474 32.9999 8.31868 32.9999C8.57345 32.9999 8.82386 32.8703 8.96653 32.6374L13.4899 25.2402C13.7083 24.8835 13.5947 24.4162 13.238 24.1978Z" fill="#1787E0"/>
<path d="M12.95 30.0781C13.0738 30.1538 13.2106 30.1902 13.346 30.1902C13.6008 30.1902 13.8497 30.062 13.9924 29.8291L16.808 25.2431C17.0264 24.8865 16.9158 24.4191 16.5591 24.2008C16.2024 23.9824 15.7351 24.093 15.5167 24.4512L12.7011 29.0371C12.4812 29.3923 12.5919 29.8582 12.95 30.0781Z" fill="#1787E0"/>
</svg>
