<svg width="30" height="34" viewBox="0 0 30 34" fill="none" xmlns="http://www.w3.org/2000/svg">
<path d="M9 24.32L13.5 16V21.12H20L12 33.5L14.5 24.32H9Z" fill="#FFD600"/>
<path d="M4.81052 9.76825L4.81053 9.76827L4.81673 9.76493L5.33466 9.48605L5.81884 9.22534L5.85802 8.67683L5.89664 8.13608C6.21492 5.1622 8.42834 3.11155 11.0359 3.11155C12.2899 3.11155 13.3227 3.53865 14.4381 4.61723L14.8307 5.0099L15.2227 5.40181L15.7627 5.27718L16.2806 5.15766L16.3057 5.15187L16.3305 5.14479C16.3713 5.13314 16.5086 5.10912 16.7301 5.08987C16.9324 5.07227 17.1425 5.06375 17.2908 5.06375C18.8298 5.06375 20.1376 6.25157 20.3213 7.84371L20.3223 7.85249L20.3235 7.86125L20.4829 9.05647L20.6345 10.1933L21.74 9.8883L22.8954 9.56957L22.9062 9.56661L22.9168 9.56341C23.1901 9.48142 23.5234 9.44622 23.8645 9.44622C25.5701 9.44622 26.9283 10.8158 26.9283 12.2311C26.9283 13.594 25.5438 14.9761 23.8645 14.9761H18.4462H12.749H5.81673C4.09912 14.9761 3.03187 13.5559 3.03187 12.2311C3.03187 11.4571 3.69458 10.359 4.81052 9.76825Z" fill="#727272" stroke="#727272" stroke-width="2"/>
</svg>
