<svg width="31" height="36" viewBox="0 0 31 36" fill="none" xmlns="http://www.w3.org/2000/svg">
<path d="M30.2311 13.3931C29.8924 13.44 29.5566 13.4635 29.2332 13.4635C25.2538 13.4635 22.0164 10.2239 22.0164 6.24195C22.0164 4.32306 22.7609 2.5161 24.1127 1.15394C24.3172 0.947901 24.3675 0.634216 24.2378 0.374466C24.1082 0.114717 23.8272 -0.0333239 23.5399 0.00639449C19.3287 0.58863 16.1528 4.23956 16.1528 8.49868C17.041 8.69826 17.6219 10.4967 18.5655 11.1354C21.3702 11.2505 23.5896 12.6591 24.3188 16.8887C26.6187 16.8887 29.182 16.1747 30.8035 14.5408C31.0078 14.3348 31.0583 14.0211 30.9289 13.7614C30.799 13.5018 30.5189 13.352 30.2311 13.3931ZM24.7227 15.7202C24.2254 12.8732 22.444 10.9239 18.9367 10.9498C18.3887 10.5901 17.9212 9.22729 17.2664 8.9083C17.2664 5.98629 19.2806 2.99475 21.8556 1.87316C21.078 3.18229 20.6633 4.68098 20.6633 6.24195C20.6633 10.6584 24.0173 14.3059 28.3101 14.7681C27.2303 15.3894 26.0023 15.7202 24.7227 15.7202Z" fill="white"/>
<path d="M17.2664 8.9083C17.2664 5.98629 19.2806 2.99475 21.8556 1.87316C21.078 3.18229 20.6633 4.68098 20.6633 6.24195C20.6633 10.6584 24.0173 14.3059 28.3101 14.7681C27.2303 15.3894 26.0023 15.7202 24.7227 15.7202C24.2254 12.8732 22.444 10.9239 18.9367 10.9498C18.3887 10.5901 17.9212 9.22729 17.2664 8.9083Z" fill="white"/>
<path d="M9 26.32L13.5 18V23.12H20L12 35.5L14.5 26.32H9Z" fill="#FFD600"/>
<path d="M4.81052 11.7683L4.81053 11.7683L4.81673 11.7649L5.33466 11.4861L5.81884 11.2253L5.85802 10.6768L5.89664 10.1361C6.21492 7.1622 8.42834 5.11155 11.0359 5.11155C12.2899 5.11155 13.3227 5.53865 14.4381 6.61723L14.8307 7.0099L15.2227 7.40181L15.7627 7.27718L16.2806 7.15766L16.3057 7.15187L16.3305 7.14479C16.3713 7.13314 16.5086 7.10912 16.7301 7.08987C16.9324 7.07227 17.1425 7.06375 17.2908 7.06375C18.8298 7.06375 20.1376 8.25157 20.3213 9.84371L20.3223 9.85249L20.3235 9.86125L20.4829 11.0565L20.6345 12.1933L21.74 11.8883L22.8954 11.5696L22.9062 11.5666L22.9168 11.5634C23.1901 11.4814 23.5234 11.4462 23.8645 11.4462C25.5701 11.4462 26.9283 12.8158 26.9283 14.2311C26.9283 15.594 25.5438 16.9761 23.8645 16.9761H18.4462H12.749H5.81673C4.09912 16.9761 3.03187 15.5559 3.03187 14.2311C3.03187 13.4571 3.69458 12.359 4.81052 11.7683Z" fill="#727272" stroke="#727272" stroke-width="2"/>
</svg>
