<svg width="34" height="35" viewBox="0 0 34 35" fill="none" xmlns="http://www.w3.org/2000/svg">
<path d="M22.2336 11.0241C22.0109 11.0241 21.7882 11.0241 21.5655 11.0612C20.8603 8.64852 18.6332 6.90397 16.1092 6.90397C15.8122 6.90397 15.4039 6.94109 15.0328 6.97821C13.5852 5.7162 12.0633 5.12231 10.2817 5.12231C6.45852 5.12231 3.37773 7.94328 2.74673 11.8778C1.07642 12.9542 0 14.7359 0 16.4804C0 19.4869 2.44978 21.9738 5.45633 21.9738H11.2467L9.13101 28.2468H12.3231L10.3559 34.2228L17.4825 26.1311H13.6223L16.0349 21.9738H22.2336C25.3515 21.9738 27.9498 19.4498 27.9498 16.4804C27.9498 13.511 25.3144 11.0241 22.2336 11.0241ZM17.1856 20.0066H11.8777H5.41922C3.22926 20.0066 1.89301 18.1878 1.89301 16.5175C1.89301 15.3669 2.78384 14.0677 4.04585 13.3996L4.52839 13.1398L4.5655 12.6201C4.89956 9.42799 7.31223 7.08956 10.2817 7.08956C11.7293 7.08956 12.917 7.60921 14.1048 8.75987L14.476 9.13105L14.9585 9.0197C15.2183 8.94546 15.7751 8.90834 16.1092 8.90834C18.0393 8.90834 19.6354 10.3931 19.8581 12.3232L20.0066 13.4367L21.083 13.1398C21.4542 13.0284 21.8625 12.9913 22.2336 12.9913C24.2751 12.9913 26.0197 14.6245 26.0197 16.5175C26.0197 18.3734 24.238 20.0066 22.2336 20.0066H17.1856V20.0066Z" fill="#54D8D8"/>
<path d="M33.2311 13.3931C32.8924 13.44 32.5566 13.4635 32.2332 13.4635C28.2538 13.4635 25.0164 10.2239 25.0164 6.24196C25.0164 4.32306 25.7609 2.5161 27.1127 1.15394C27.3172 0.947901 27.3675 0.634216 27.2378 0.374466C27.1082 0.114717 26.8272 -0.0333239 26.5399 0.00639449C22.3287 0.58863 19.1528 4.23956 19.1528 8.49868C20.041 8.69826 20.6219 10.4967 21.5655 11.1354C24.3702 11.2505 26.5896 12.6591 27.3188 16.8887C29.6187 16.8887 32.182 16.1747 33.8035 14.5408C34.0078 14.3348 34.0583 14.0211 33.9289 13.7614C33.799 13.5018 33.5189 13.352 33.2311 13.3931ZM27.7227 15.7202C27.2254 12.8732 25.444 10.9239 21.9367 10.9498C21.3887 10.5901 20.9212 9.22729 20.2664 8.9083C20.2664 5.98629 22.2806 2.99475 24.8556 1.87316C24.078 3.18229 23.6633 4.68098 23.6633 6.24196C23.6633 10.6584 27.0173 14.3059 31.3101 14.7681C30.2303 15.3894 29.0023 15.7202 27.7227 15.7202Z" fill="#54D8D8"/>
</svg>
