<svg width="23" height="18" viewBox="0 0 23 18" fill="none" xmlns="http://www.w3.org/2000/svg">
<path d="M18.9 4.05C18.585 4.05 18.27 4.05 17.91 4.185C17.55 1.8 15.48 0 13.05 0C11.43 0 9.9 0.81 9 2.115C8.595 1.935 8.145 1.8 7.65 1.8C6.165 1.8 4.95 2.79 4.59 4.185C4.275 4.095 3.96 4.05 3.6 4.05C1.665 4.05 0 5.805 0 7.875C0 9.9 1.665 11.7 3.6 11.7H18.9C20.835 11.7 22.5 9.9 22.5 7.875C22.5 5.805 20.835 4.05 18.9 4.05ZM18.9 10.8H3.6C2.16 10.8 0.9 9.45 0.9 7.875C0.9 6.3 2.16 4.95 3.6 4.95C4.005 4.95 4.41 5.04 4.77 5.22C4.905 5.265 5.085 5.265 5.175 5.22C5.31 5.13 5.4 4.995 5.4 4.86C5.445 3.69 6.435 2.745 7.65 2.745C8.1 2.745 8.55 2.88 8.91 3.105C9 3.15 9.135 3.15 9.27 3.15C9.405 3.105 9.495 3.06 9.54 2.925C10.26 1.665 11.61 0.9 13.05 0.9C15.21 0.9 17.01 2.7 17.1 4.86C17.1 5.04 17.19 5.175 17.37 5.265C17.505 5.355 17.685 5.31 17.82 5.22C18.045 5.04 18.36 4.95 18.9 4.95C20.34 4.95 21.6 6.3 21.6 7.875C21.6 9.45 20.34 10.8 18.9 10.8Z" fill="white"/>
<path d="M18.9 10.8H3.6C2.16 10.8 0.9 9.45 0.9 7.875C0.9 6.3 2.16 4.95 3.6 4.95C4.005 4.95 4.41 5.04 4.77 5.22C4.905 5.265 5.085 5.265 5.175 5.22C5.31 5.13 5.4 4.995 5.4 4.86C5.445 3.69 6.435 2.745 7.65 2.745C8.1 2.745 8.55 2.88 8.91 3.105C9 3.15 9.135 3.15 9.27 3.15C9.405 3.105 9.495 3.06 9.54 2.925C10.26 1.665 11.61 0.9 13.05 0.9C15.21 0.9 17.01 2.7 17.1 4.86C17.1 5.04 17.19 5.175 17.37 5.265C17.505 5.355 17.685 5.31 17.82 5.22C18.045 5.04 18.36 4.95 18.9 4.95C20.34 4.95 21.6 6.3 21.6 7.875C21.6 9.45 20.34 10.8 18.9 10.8Z" fill="white"/>
<path d="M2.83495 15.165C2.92495 15.255 3.05995 15.3 3.14995 15.3C3.23995 15.3 3.37495 15.255 3.46495 15.165L3.82495 14.8051L4.18495 15.165C4.27495 15.255 4.40995 15.3 4.49995 15.3C4.58995 15.3 4.72495 15.255 4.81495 15.165C4.99495 14.985 4.99495 14.715 4.81495 14.535L4.45495 14.175L4.81495 13.815C4.99495 13.635 4.99495 13.365 4.81495 13.185C4.63495 13.005 4.36495 13.005 4.18495 13.185L3.82495 13.545L3.46495 13.185C3.28495 13.005 3.01495 13.005 2.83495 13.185C2.65495 13.365 2.65495 13.635 2.83495 13.815L3.19495 14.175L2.83495 14.535C2.65495 14.715 2.65495 14.985 2.83495 15.165Z" fill="#ABFFFF"/>
<path d="M6.43505 17.865C6.52505 17.955 6.66005 18 6.75005 18C6.84005 18 6.97505 17.955 7.06505 17.865L7.42505 17.505L7.78505 17.865C7.87505 17.955 8.01005 18 8.10005 18C8.19005 18 8.32505 17.955 8.41505 17.865C8.59505 17.685 8.59505 17.415 8.41505 17.235L8.05505 16.875L8.41505 16.515C8.59505 16.335 8.59505 16.065 8.41505 15.885C8.23505 15.705 7.96505 15.705 7.78505 15.885L7.42505 16.245L7.06505 15.885C6.88505 15.705 6.61505 15.705 6.43505 15.885C6.25505 16.065 6.25505 16.335 6.43505 16.515L6.79505 16.875L6.43505 17.235C6.25505 17.415 6.25505 17.685 6.43505 17.865Z" fill="#ABFFFF"/>
<path d="M10.0349 15.165C10.1249 15.255 10.2599 15.3 10.3499 15.3C10.4399 15.3 10.5749 15.255 10.6649 15.165L11.0249 14.8051L11.3849 15.165C11.4749 15.255 11.6099 15.3 11.6999 15.3C11.7899 15.3 11.9249 15.255 12.0149 15.165C12.1949 14.985 12.1949 14.715 12.0149 14.535L11.6549 14.175L12.0149 13.815C12.1949 13.635 12.1949 13.365 12.0149 13.185C11.8349 13.005 11.5649 13.005 11.3849 13.185L11.0249 13.545L10.6649 13.185C10.4849 13.005 10.2149 13.005 10.0349 13.185C9.8549 13.365 9.8549 13.635 10.0349 13.815L10.3949 14.175L10.0349 14.535C9.8549 14.715 9.8549 14.985 10.0349 15.165Z" fill="#ABFFFF"/>
<path d="M13.635 17.865C13.725 17.955 13.86 18 13.95 18C14.04 18 14.175 17.955 14.265 17.865L14.625 17.505L14.985 17.865C15.075 17.955 15.21 18 15.3 18C15.39 18 15.525 17.955 15.615 17.865C15.795 17.685 15.795 17.415 15.615 17.235L15.255 16.875L15.615 16.515C15.795 16.335 15.795 16.065 15.615 15.885C15.435 15.705 15.165 15.705 14.985 15.885L14.625 16.245L14.265 15.885C14.085 15.705 13.815 15.705 13.635 15.885C13.455 16.065 13.455 16.335 13.635 16.515L13.995 16.875L13.635 17.235C13.455 17.415 13.455 17.685 13.635 17.865Z" fill="#ABFFFF"/>
<path d="M17.2351 15.165C17.3251 15.255 17.4601 15.3 17.5501 15.3C17.6401 15.3 17.7751 15.255 17.8651 15.165L18.2251 14.8051L18.5851 15.165C18.6751 15.255 18.8101 15.3 18.9001 15.3C18.9901 15.3 19.1251 15.255 19.2151 15.165C19.3951 14.985 19.3951 14.715 19.2151 14.535L18.8551 14.175L19.2151 13.815C19.3951 13.635 19.3951 13.365 19.2151 13.185C19.0351 13.005 18.7651 13.005 18.5851 13.185L18.2251 13.545L17.8651 13.185C17.6851 13.005 17.4151 13.005 17.2351 13.185C17.0551 13.365 17.0551 13.635 17.2351 13.815L17.5951 14.175L17.2351 14.535C17.0551 14.715 17.0551 14.985 17.2351 15.165Z" fill="#ABFFFF"/>
</svg>
