<svg width="30" height="32" viewBox="0 0 30 32" fill="none" xmlns="http://www.w3.org/2000/svg">
<path d="M23.8645 6.33466C23.6255 6.33466 23.3865 6.33466 23.1474 6.3745C22.3904 3.78486 20 1.91235 17.2908 1.91235C16.9721 1.91235 16.5339 1.95219 16.1355 1.99203C14.5817 0.63745 12.9482 0 11.0359 0C6.93227 0 3.6255 3.02789 2.94821 7.251C1.15538 8.40638 0 10.3187 0 12.1912C0 15.4183 2.62948 18.0877 5.85657 18.0877H12.0717L9.8008 24.8207H13.2271L11.1155 31.2351L18.7649 22.5498H14.6215L17.2112 18.0877H23.8645C27.2112 18.0877 30 15.3785 30 12.1912C30 9.00399 27.1713 6.33466 23.8645 6.33466ZM18.4462 15.9761H12.749H5.81673C3.46614 15.9761 2.03187 14.0239 2.03187 12.2311C2.03187 10.996 2.98805 9.60159 4.34263 8.88446L4.86056 8.60558L4.9004 8.04781C5.25896 4.62151 7.84861 2.11155 11.0359 2.11155C12.5896 2.11155 13.8645 2.66932 15.1394 3.90438L15.5378 4.30279L16.0558 4.18327C16.3347 4.10359 16.9323 4.06375 17.2908 4.06375C19.3626 4.06375 21.0757 5.65737 21.3147 7.72909L21.4741 8.9243L22.6295 8.60558C23.0279 8.48606 23.4661 8.44622 23.8645 8.44622C26.0558 8.44622 27.9283 10.1992 27.9283 12.2311C27.9283 14.2231 26.0159 15.9761 23.8645 15.9761H18.4462V15.9761Z" fill="#54D8D8"/>
</svg>
