<svg width="29" height="24" viewBox="0 0 29 24" fill="none" xmlns="http://www.w3.org/2000/svg">
<path d="M27.3866 12.735C27.0645 12.7796 26.7452 12.8019 26.4376 12.8019C22.6538 12.8019 19.5755 9.72159 19.5755 5.93526C19.5755 4.11065 20.2834 2.39247 21.5687 1.09724C21.7632 0.901325 21.8111 0.603053 21.6878 0.356067C21.5644 0.109081 21.2973 -0.0316865 21.0241 0.00608029C17.0198 0.559707 14 4.03125 14 8.0811C14.8445 8.27087 15.3969 9.9809 16.2941 10.5882C18.961 10.6977 21.0714 12.0371 21.7647 16.0588C23.9516 16.0588 26.389 15.38 27.9308 13.8264C28.1251 13.6305 28.1731 13.3322 28.05 13.0852C27.9265 12.8384 27.6602 12.6959 27.3866 12.735ZM22.1488 14.9478C21.6759 12.2406 19.9821 10.3872 16.6471 10.4118C16.126 10.0698 15.6815 8.77391 15.0588 8.47059C15.0588 5.69215 16.9741 2.8476 19.4226 1.78112C18.6832 3.02592 18.2888 4.45098 18.2888 5.93526C18.2888 10.1347 21.478 13.603 25.5599 14.0425C24.5332 14.6332 23.3655 14.9478 22.1488 14.9478Z" fill="white"/>
<path d="M15.0588 8.47059C15.0588 5.69215 16.9741 2.8476 19.4226 1.78112C18.6832 3.02592 18.2888 4.45098 18.2888 5.93526C18.2888 10.1347 21.478 13.603 25.5599 14.0425C24.5332 14.6332 23.3655 14.9478 22.1488 14.9478C21.6759 12.2406 19.9821 10.3872 16.6471 10.4118C16.126 10.0698 15.6815 8.77391 15.0588 8.47059Z" fill="white"/>
<path d="M18.9 10.05C18.585 10.05 18.27 10.05 17.91 10.185C17.55 7.8 15.48 6 13.05 6C11.43 6 9.9 6.81 9 8.115C8.595 7.935 8.145 7.8 7.65 7.8C6.165 7.8 4.95 8.79 4.59 10.185C4.275 10.095 3.96 10.05 3.6 10.05C1.665 10.05 0 11.805 0 13.875C0 15.9 1.665 17.7 3.6 17.7H18.9C20.835 17.7 22.5 15.9 22.5 13.875C22.5 11.805 20.835 10.05 18.9 10.05ZM18.9 16.8H3.6C2.16 16.8 0.9 15.45 0.9 13.875C0.9 12.3 2.16 10.95 3.6 10.95C4.005 10.95 4.41 11.04 4.77 11.22C4.905 11.265 5.085 11.265 5.175 11.22C5.31 11.13 5.4 10.995 5.4 10.86C5.445 9.69 6.435 8.745 7.65 8.745C8.1 8.745 8.55 8.88 8.91 9.105C9 9.15 9.135 9.15 9.27 9.15C9.405 9.105 9.495 9.06 9.54 8.925C10.26 7.665 11.61 6.9 13.05 6.9C15.21 6.9 17.01 8.7 17.1 10.86C17.1 11.04 17.19 11.175 17.37 11.265C17.505 11.355 17.685 11.31 17.82 11.22C18.045 11.04 18.36 10.95 18.9 10.95C20.34 10.95 21.6 12.3 21.6 13.875C21.6 15.45 20.34 16.8 18.9 16.8Z" fill="#979797"/>
<path d="M18.9 16.8H3.6C2.16 16.8 0.9 15.45 0.9 13.875C0.9 12.3 2.16 10.95 3.6 10.95C4.005 10.95 4.41 11.04 4.77 11.22C4.905 11.265 5.085 11.265 5.175 11.22C5.31 11.13 5.4 10.995 5.4 10.86C5.445 9.69 6.435 8.745 7.65 8.745C8.1 8.745 8.55 8.88 8.91 9.105C9 9.15 9.135 9.15 9.27 9.15C9.405 9.105 9.495 9.06 9.54 8.925C10.26 7.665 11.61 6.9 13.05 6.9C15.21 6.9 17.01 8.7 17.1 10.86C17.1 11.04 17.19 11.175 17.37 11.265C17.505 11.355 17.685 11.31 17.82 11.22C18.045 11.04 18.36 10.95 18.9 10.95C20.34 10.95 21.6 12.3 21.6 13.875C21.6 15.45 20.34 16.8 18.9 16.8Z" fill="#979797"/>
<path d="M2.83495 21.165C2.92495 21.255 3.05995 21.3 3.14995 21.3C3.23995 21.3 3.37495 21.255 3.46495 21.165L3.82495 20.8051L4.18495 21.165C4.27495 21.255 4.40995 21.3 4.49995 21.3C4.58995 21.3 4.72495 21.255 4.81495 21.165C4.99495 20.985 4.99495 20.715 4.81495 20.535L4.45495 20.175L4.81495 19.815C4.99495 19.635 4.99495 19.365 4.81495 19.185C4.63495 19.005 4.36495 19.005 4.18495 19.185L3.82495 19.545L3.46495 19.185C3.28495 19.005 3.01495 19.005 2.83495 19.185C2.65495 19.365 2.65495 19.635 2.83495 19.815L3.19495 20.175L2.83495 20.535C2.65495 20.715 2.65495 20.985 2.83495 21.165Z" fill="#ABFFFF"/>
<path d="M6.43505 23.865C6.52505 23.955 6.66005 24 6.75005 24C6.84005 24 6.97505 23.955 7.06505 23.865L7.42505 23.505L7.78505 23.865C7.87505 23.955 8.01005 24 8.10005 24C8.19005 24 8.32505 23.955 8.41505 23.865C8.59505 23.685 8.59505 23.415 8.41505 23.235L8.05505 22.875L8.41505 22.515C8.59505 22.335 8.59505 22.065 8.41505 21.885C8.23505 21.705 7.96505 21.705 7.78505 21.885L7.42505 22.245L7.06505 21.885C6.88505 21.705 6.61505 21.705 6.43505 21.885C6.25505 22.065 6.25505 22.335 6.43505 22.515L6.79505 22.875L6.43505 23.235C6.25505 23.415 6.25505 23.685 6.43505 23.865Z" fill="#ABFFFF"/>
<path d="M10.0349 21.165C10.1249 21.255 10.2599 21.3 10.3499 21.3C10.4399 21.3 10.5749 21.255 10.6649 21.165L11.0249 20.8051L11.3849 21.165C11.4749 21.255 11.6099 21.3 11.6999 21.3C11.7899 21.3 11.9249 21.255 12.0149 21.165C12.1949 20.985 12.1949 20.715 12.0149 20.535L11.6549 20.175L12.0149 19.815C12.1949 19.635 12.1949 19.365 12.0149 19.185C11.8349 19.005 11.5649 19.005 11.3849 19.185L11.0249 19.545L10.6649 19.185C10.4849 19.005 10.2149 19.005 10.0349 19.185C9.8549 19.365 9.8549 19.635 10.0349 19.815L10.3949 20.175L10.0349 20.535C9.8549 20.715 9.8549 20.985 10.0349 21.165Z" fill="#ABFFFF"/>
<path d="M13.635 23.865C13.725 23.955 13.86 24 13.95 24C14.04 24 14.175 23.955 14.265 23.865L14.625 23.505L14.985 23.865C15.075 23.955 15.21 24 15.3 24C15.39 24 15.525 23.955 15.615 23.865C15.795 23.685 15.795 23.415 15.615 23.235L15.255 22.875L15.615 22.515C15.795 22.335 15.795 22.065 15.615 21.885C15.435 21.705 15.165 21.705 14.985 21.885L14.625 22.245L14.265 21.885C14.085 21.705 13.815 21.705 13.635 21.885C13.455 22.065 13.455 22.335 13.635 22.515L13.995 22.875L13.635 23.235C13.455 23.415 13.455 23.685 13.635 23.865Z" fill="#ABFFFF"/>
<path d="M17.2351 21.165C17.3251 21.255 17.4601 21.3 17.5501 21.3C17.6401 21.3 17.7751 21.255 17.8651 21.165L18.2251 20.8051L18.5851 21.165C18.6751 21.255 18.8101 21.3 18.9001 21.3C18.9901 21.3 19.1251 21.255 19.2151 21.165C19.3951 20.985 19.3951 20.715 19.2151 20.535L18.8551 20.175L19.2151 19.815C19.3951 19.635 19.3951 19.365 19.2151 19.185C19.0351 19.005 18.7651 19.005 18.5851 19.185L18.2251 19.545L17.8651 19.185C17.6851 19.005 17.4151 19.005 17.2351 19.185C17.0551 19.365 17.0551 19.635 17.2351 19.815L17.5951 20.175L17.2351 20.535C17.0551 20.715 17.0551 20.985 17.2351 21.165Z" fill="#ABFFFF"/>
</svg>
