<svg width="27" height="25" viewBox="0 0 27 25" fill="none" xmlns="http://www.w3.org/2000/svg">
<path d="M5.89408 16.8497H5.89491H20.9012L20.9049 16.8534L21.194 16.8532C21.9343 16.8526 22.6653 16.6883 23.3347 16.3721C24.0042 16.0559 24.5954 15.5955 25.066 15.0241C25.5367 14.4526 25.8752 13.7842 26.0573 13.0666C26.2393 12.349 26.2605 11.6 26.1192 10.8733C25.978 10.1465 25.6777 9.46003 25.2401 8.86291C24.8024 8.26579 24.2382 7.77283 23.5877 7.41932L23.2549 8.0317L23.5877 7.41932C22.9372 7.06582 22.2166 6.86051 21.4775 6.81811C20.7384 6.7757 19.999 6.89725 19.3124 7.17404L19.3118 7.17428L19.3113 7.17248C18.8695 5.422 17.832 3.87996 16.377 2.81117C14.922 1.74238 13.1402 1.21352 11.3377 1.31542C9.53525 1.41732 7.82448 2.14362 6.4992 3.36959C5.17392 4.59556 4.31683 6.2447 4.07512 8.03382L4.07506 8.03429L4.07437 8.03459C3.10446 8.45422 2.30878 9.19524 1.82129 10.1329C1.33381 11.0705 1.1843 12.1475 1.39795 13.1825C1.6116 14.2174 2.17535 15.1472 2.99428 15.8151C3.81321 16.4831 4.83729 16.8484 5.89408 16.8497Z" fill="white" stroke="white" stroke-width="1.39394"/>
<rect x="5.48486" y="18.7273" width="15.6818" height="1.39394" rx="0.69697" fill="#1787E0"/>
<rect x="5.48486" y="21.1666" width="15.6818" height="1.39394" rx="0.69697" fill="#1787E0"/>
<rect x="5.48486" y="23.6061" width="15.6818" height="1.39394" rx="0.69697" fill="#1787E0"/>
</svg>
