<svg width="32" height="30" viewBox="0 0 32 30" fill="none" xmlns="http://www.w3.org/2000/svg">
<path d="M31.2689 12.735C30.9468 12.7796 30.6275 12.8019 30.32 12.8019C26.5361 12.8019 23.4578 9.72159 23.4578 5.93526C23.4578 4.11065 24.1657 2.39247 25.4511 1.09724C25.6456 0.901325 25.6934 0.603053 25.5701 0.356067C25.4468 0.109081 25.1796 -0.0316865 24.9064 0.00608029C20.9021 0.559707 17.8823 4.03125 17.8823 8.0811C18.7268 8.27087 19.2792 9.9809 20.1764 10.5882C22.8433 10.6977 24.9537 12.0371 25.647 16.0588C27.8339 16.0588 30.2713 15.38 31.8131 13.8264C32.0074 13.6305 32.0555 13.3322 31.9324 13.0852C31.8088 12.8384 31.5425 12.6959 31.2689 12.735ZM26.0311 14.9478C25.5582 12.2406 23.8644 10.3872 20.5294 10.4118C20.0084 10.0698 19.5638 8.77391 18.9411 8.47059C18.9411 5.69215 20.8564 2.8476 23.3049 1.78112C22.5655 3.02592 22.1712 4.45098 22.1712 5.93526C22.1712 10.1347 25.3604 13.603 29.4423 14.0425C28.4155 14.6332 27.2479 14.9478 26.0311 14.9478Z" fill="white"/>
<path d="M18.9411 8.47059C18.9411 5.69215 20.8564 2.8476 23.3049 1.78112C22.5655 3.02592 22.1712 4.45098 22.1712 5.93526C22.1712 10.1347 25.3604 13.603 29.4423 14.0425C28.4155 14.6332 27.2479 14.9478 26.0311 14.9478C25.5582 12.2406 23.8644 10.3872 20.5294 10.4118C20.0084 10.0698 19.5638 8.77391 18.9411 8.47059Z" fill="white"/>
<path d="M5.94388 21.0396H5.94472H21.1429L21.1466 21.0434L21.4394 21.0431C22.1892 21.0425 22.9296 20.8761 23.6076 20.5559C24.2855 20.2356 24.8843 19.7694 25.361 19.1906C25.8377 18.6119 26.1805 17.9349 26.3649 17.2081C26.5493 16.4813 26.5707 15.7228 26.4277 14.9867C26.2846 14.2507 25.9805 13.5554 25.5373 12.9507C25.094 12.3459 24.5225 11.8467 23.8637 11.4886C23.2049 11.1306 22.4751 10.9227 21.7265 10.8797C20.978 10.8368 20.2292 10.9599 19.5337 11.2402L19.5331 11.2405L19.5327 11.2386C19.0852 9.46576 18.0345 7.90401 16.5608 6.82155C15.0872 5.73909 13.2827 5.20347 11.4572 5.30667C9.63161 5.40987 7.89896 6.14546 6.55673 7.3871C5.2145 8.62875 4.34646 10.299 4.10166 12.111L4.1016 12.1115L4.1009 12.1118C3.11859 12.5368 2.31273 13.2872 1.81901 14.2369C1.32529 15.1865 1.17387 16.2773 1.39025 17.3255C1.60663 18.3737 2.17759 19.3153 3.007 19.9918C3.8364 20.6683 4.87357 21.0383 5.94388 21.0396Z" fill="#979797" stroke="#979797" stroke-width="1.41176"/>
<rect x="5.52954" y="22.9412" width="15.8824" height="1.41176" rx="0.705882" fill="#1766E0"/>
<rect x="5.52954" y="25.4117" width="15.8824" height="1.41176" rx="0.705882" fill="#1766E0"/>
<rect x="5.52954" y="27.8823" width="15.8824" height="1.41176" rx="0.705882" fill="#1766E0"/>
</svg>
